<?xml version="1.0" encoding="UTF-8"?>
<svg width="53px" height="68px" viewBox="0 0 53 68" version="1.1" xmlns="http://www.w3.org/2000/svg" xmlns:xlink="http://www.w3.org/1999/xlink">
    <!-- Generator: Sketch 50.2 (55047) - http://www.bohemiancoding.com/sketch -->
    <title>label-top-casino</title>
    <desc>Created with Sketch.</desc>
    <defs></defs>
    <g id="Symbols" stroke="none" stroke-width="1" fill="none" fill-rule="evenodd">
        <g id="1:-Atoms-/-Label-/-Top-casino">
            <g id="label-top-casino">
                <g id="Page-1">
                    <path d="M26.1750224,67.8562582 C20.2614619,67.8562582 14.5626796,65.8213582 9.85903649,61.9943182 C4.42514738,57.5675182 0.988695766,51.2557582 0.186857056,44.2228582 C-1.22351996,31.9063582 5.35585302,2.7751582 21.4785385,0.9330382 C28.6163349,0.1262182 36.0977764,5.0171182 42.562601,14.7132382 C47.5096595,22.1316982 51.2181635,31.3994182 52.0128429,38.3180782 C52.8146817,45.3509782 50.8959962,52.2696382 46.6075909,57.8031382 C42.2833893,63.3866182 36.0762986,66.8994982 29.1246433,67.6920382 C28.1366635,67.7991382 27.1558429,67.8562582 26.1750224,67.8562582" id="Fill-1" fill="#FFB600"></path>
                    <path d="M20.6373238,12.7483102 C20.6373238,12.7483102 15.7904952,15.5257702 13.069971,23.5439902 C10.3494468,31.5550702 15.1461605,32.1048502 16.7713157,30.0342502 C18.396471,27.9636502 17.1364387,25.3289902 18.188852,20.1667702 C18.8833016,16.7252902 20.7876685,14.5904302 21.3962069,13.8835702 C21.8544004,13.3409302 21.2816585,12.4270102 20.6731202,12.7340302 C20.6659609,12.7340302 20.6516423,12.7411702 20.6373238,12.7483102" id="Fill-4" fill="#FFFFFF"></path>
                    <path d="M18.2704677,16.4368342 C16.9030464,18.0504742 15.3208468,20.4709342 14.1610444,23.9052742 C12.9081714,27.5752342 13.395002,29.3745142 14.1825222,29.7957742 C14.6836714,30.0670942 15.456873,29.8528942 15.8649516,29.3316742 C16.502127,28.5177142 16.5379234,27.5823742 16.5522419,25.6902742 C16.5594012,24.1908742 16.5737198,22.3273342 17.0605504,19.9354342 C17.3397621,18.5716942 17.7836371,17.4078742 18.2704677,16.4368342 M14.6908306,32.2090942 C14.1395665,32.2090942 13.5883024,32.0805742 13.0871532,31.8092542 C12.063377,31.2594742 9.90127621,29.3102542 11.984625,23.1698542 C14.8125383,14.8446142 19.8526673,11.8815142 20.0674456,11.7601342 L20.1247198,11.7244342 L20.6401875,12.7454542 L20.1461976,11.7172942 C20.9050806,11.3317342 21.7570343,11.5387942 22.2868206,12.2170942 C22.8595625,12.9382342 22.845244,13.9521142 22.2653427,14.6232742 C21.592371,15.4086742 19.9314194,17.3293342 19.3085625,20.3923942 C18.8646875,22.5629542 18.8575282,24.2337142 18.850369,25.7116942 C18.8360504,27.6252142 18.8217319,29.2816942 17.676248,30.7382542 C16.9316835,31.6878742 15.8005181,32.2090942 14.6908306,32.2090942" id="Fill-6" fill="#FFFFFF"></path>
                </g>
                <path d="M17.9749689,44.7836655 L17.9749689,38.1116655 L15.4429689,38.1116655 L15.4429689,36.3236655 L22.7389689,36.3236655 L22.7389689,38.1116655 L20.2069689,38.1116655 L20.2069689,44.7836655 L17.9749689,44.7836655 Z M27.6709689,44.8916655 C26.8069646,44.8916655 26.0569721,44.7136673 25.4209689,44.3576655 C24.7849657,44.0016638 24.2949706,43.4976688 23.9509689,42.8456655 C23.6069672,42.1936623 23.4349689,41.4276699 23.4349689,40.5476655 C23.4349689,39.6676611 23.6069672,38.9016688 23.9509689,38.2496655 C24.2949706,37.5976623 24.7849657,37.0956673 25.4209689,36.7436655 C26.0569721,36.3916638 26.8069646,36.2156655 27.6709689,36.2156655 C28.5349732,36.2156655 29.2849657,36.3916638 29.9209689,36.7436655 C30.5569721,37.0956673 31.0449672,37.5976623 31.3849689,38.2496655 C31.7249706,38.9016688 31.8949689,39.6676611 31.8949689,40.5476655 C31.8949689,41.4276699 31.7229706,42.1936623 31.3789689,42.8456655 C31.0349672,43.4976688 30.5449721,44.0016638 29.9089689,44.3576655 C29.2729657,44.7136673 28.5269732,44.8916655 27.6709689,44.8916655 Z M27.6709689,43.1996655 C28.3109721,43.1996655 28.8109671,42.9736678 29.1709689,42.5216655 C29.5309707,42.0696633 29.7109689,41.4116699 29.7109689,40.5476655 C29.7109689,39.6836612 29.5289707,39.0276678 29.1649689,38.5796655 C28.8009671,38.1316633 28.3029721,37.9076655 27.6709689,37.9076655 C27.0309657,37.9076655 26.5309707,38.1296633 26.1709689,38.5736655 C25.8109671,39.0176678 25.6309689,39.6756612 25.6309689,40.5476655 C25.6309689,41.4196699 25.8109671,42.0796633 26.1709689,42.5276655 C26.5309707,42.9756678 27.0309657,43.1996655 27.6709689,43.1996655 Z M33.2029689,36.3236655 L37.2949689,36.3236655 C38.2309736,36.3236655 38.9589663,36.5616632 39.4789689,37.0376655 C39.9989715,37.5136679 40.2589689,38.1756613 40.2589689,39.0236655 C40.2589689,39.8636697 39.9969715,40.5236631 39.4729689,41.0036655 C38.9489663,41.4836679 38.2229735,41.7236655 37.2949689,41.7236655 L35.4109689,41.7236655 L35.4109689,44.7836655 L33.2029689,44.7836655 L33.2029689,36.3236655 Z M36.9949689,40.0676655 C37.4029709,40.0676655 37.7049679,39.9836664 37.9009689,39.8156655 C38.0969699,39.6476647 38.1949689,39.3876673 38.1949689,39.0356655 C38.1949689,38.6836638 38.0969699,38.4216664 37.9009689,38.2496655 C37.7049679,38.0776647 37.4029709,37.9916655 36.9949689,37.9916655 L35.4109689,37.9916655 L35.4109689,40.0676655 L36.9949689,40.0676655 Z M15.3049689,53.8556655 C14.7182993,53.8556655 14.2076377,53.7356667 13.7729689,53.4956655 C13.3383001,53.2556643 13.0049701,52.9170011 12.7729689,52.4796655 C12.5409677,52.04233 12.4249689,51.5356684 12.4249689,50.9596655 C12.4249689,50.3836627 12.5409677,49.8783344 12.7729689,49.4436655 C13.0049701,49.0089967 13.3383001,48.6716667 13.7729689,48.4316655 C14.2076377,48.1916643 14.7182993,48.0716655 15.3049689,48.0716655 C15.6729707,48.0716655 16.0289672,48.127665 16.3729689,48.2396655 C16.7169706,48.3516661 16.9983011,48.5009979 17.2169689,48.6876655 L16.7609689,49.7276655 C16.2969666,49.4023306 15.8223047,49.2396655 15.3369689,49.2396655 C14.8782999,49.2396655 14.5276368,49.3836641 14.2849689,49.6716655 C14.042301,49.959667 13.9209689,50.388996 13.9209689,50.9596655 C13.9209689,51.5303351 14.042301,51.9609974 14.2849689,52.2516655 C14.5276368,52.5423337 14.8782999,52.6876655 15.3369689,52.6876655 C15.8223047,52.6876655 16.2969666,52.5250005 16.7609689,52.1996655 L17.2169689,53.2396655 C16.9983011,53.4263331 16.7169706,53.575665 16.3729689,53.6876655 C16.0289672,53.7996661 15.6729707,53.8556655 15.3049689,53.8556655 Z M22.2889689,53.7836655 L21.7849689,52.6156655 L19.2889689,52.6156655 L18.7849689,53.7836655 L17.3049689,53.7836655 L19.9369689,48.1436655 L21.1049689,48.1436655 L23.7449689,53.7836655 L22.2889689,53.7836655 Z M19.7609689,51.5116655 L21.3129689,51.5116655 L20.5369689,49.7036655 L19.7609689,51.5116655 Z M26.1209689,53.8556655 C25.6996335,53.8556655 25.2836376,53.7996661 24.8729689,53.6876655 C24.4623002,53.575665 24.1289702,53.4263331 23.8729689,53.2396655 L24.3289689,52.1996655 C24.6009703,52.3703331 24.891634,52.5009984 25.2009689,52.5916655 C25.5103038,52.6823327 25.8223007,52.7276655 26.1369689,52.7276655 C26.4569705,52.7276655 26.7009681,52.683666 26.8689689,52.5956655 C27.0369697,52.5076651 27.1209689,52.3836663 27.1209689,52.2236655 C27.1209689,52.0796648 27.0449697,51.9623327 26.8929689,51.8716655 C26.7409681,51.7809984 26.4516377,51.6903327 26.0249689,51.5996655 C25.4969663,51.487665 25.0836371,51.354333 24.7849689,51.1996655 C24.4863007,51.0449981 24.2769695,50.8636666 24.1569689,50.6556655 C24.0369683,50.4476645 23.9769689,50.1916671 23.9769689,49.8876655 C23.9769689,49.5409971 24.0743013,49.2303336 24.2689689,48.9556655 C24.4636365,48.6809975 24.7383005,48.4649997 25.0929689,48.3076655 C25.4476373,48.1503314 25.8542999,48.0716655 26.3129689,48.0716655 C26.7183043,48.0716655 27.1116337,48.1289983 27.4929689,48.2436655 C27.8743041,48.3583328 28.1716345,48.5063313 28.3849689,48.6876655 L27.9369689,49.7276655 C27.4249663,49.3756638 26.8863051,49.1996655 26.3209689,49.1996655 C26.0489675,49.1996655 25.8303031,49.251665 25.6649689,49.3556655 C25.4996347,49.4596661 25.4169689,49.596998 25.4169689,49.7676655 C25.4169689,49.8689994 25.4463019,49.9516652 25.5049689,50.0156655 C25.5636359,50.0796659 25.6729681,50.1423319 25.8329689,50.2036655 C25.9929697,50.2649992 26.2303007,50.3276652 26.5449689,50.3916655 C27.0569715,50.5036661 27.4596341,50.6383314 27.7529689,50.7956655 C28.0463037,50.9529997 28.2543016,51.1356645 28.3769689,51.3436655 C28.4996362,51.5516666 28.5609689,51.7996641 28.5609689,52.0876655 C28.5609689,52.642335 28.3476377,53.075664 27.9209689,53.3876655 C27.4943001,53.6996671 26.8943061,53.8556655 26.1209689,53.8556655 Z M29.3929689,53.7836655 L29.3929689,48.1436655 L30.8649689,48.1436655 L30.8649689,53.7836655 L29.3929689,53.7836655 Z M35.5449689,48.1436655 L36.9209689,48.1436655 L36.9209689,53.7836655 L35.8329689,53.7836655 L33.2569689,50.5596655 L33.2569689,53.7836655 L31.8889689,53.7836655 L31.8889689,48.1436655 L32.9609689,48.1436655 L35.5449689,51.3676655 L35.5449689,48.1436655 Z M40.6249689,53.8556655 C40.048966,53.8556655 39.548971,53.7370001 39.1249689,53.4996655 C38.7009668,53.262331 38.3743034,52.9263344 38.1449689,52.4916655 C37.9156344,52.0569967 37.8009689,51.5463351 37.8009689,50.9596655 C37.8009689,50.3729959 37.9156344,49.8623344 38.1449689,49.4276655 C38.3743034,48.9929967 38.7009668,48.6583334 39.1249689,48.4236655 C39.548971,48.1889977 40.048966,48.0716655 40.6249689,48.0716655 C41.2009718,48.0716655 41.7009668,48.1889977 42.1249689,48.4236655 C42.548971,48.6583334 42.8743011,48.9929967 43.1009689,49.4276655 C43.3276367,49.8623344 43.4409689,50.3729959 43.4409689,50.9596655 C43.4409689,51.5463351 43.3263034,52.0569967 43.0969689,52.4916655 C42.8676344,52.9263344 42.540971,53.262331 42.1169689,53.4996655 C41.6929668,53.7370001 41.1956384,53.8556655 40.6249689,53.8556655 Z M40.6249689,52.7276655 C41.0516377,52.7276655 41.3849677,52.5770004 41.6249689,52.2756655 C41.8649701,51.9743307 41.9849689,51.5356684 41.9849689,50.9596655 C41.9849689,50.3836627 41.8636368,49.9463337 41.6209689,49.6476655 C41.378301,49.3489974 41.0463043,49.1996655 40.6249689,49.1996655 C40.1983001,49.1996655 39.8649701,49.3476641 39.6249689,49.6436655 C39.3849677,49.939667 39.2649689,50.3783293 39.2649689,50.9596655 C39.2649689,51.5410018 39.3849677,51.9809974 39.6249689,52.2796655 C39.8649701,52.5783337 40.1983001,52.7276655 40.6249689,52.7276655 Z" id="TOP-CASINO" fill="#262626" transform="translate(27.932969, 45.035666) rotate(-15.000000) translate(-27.932969, -45.035666) "></path>
            </g>
        </g>
    </g>
</svg>