<?xml version="1.0" encoding="UTF-8"?>
<svg width="49px" height="32px" viewBox="0 0 49 32" version="1.1" xmlns="http://www.w3.org/2000/svg" xmlns:xlink="http://www.w3.org/1999/xlink">
    <!-- Generator: Sketch 51 (57462) - http://www.bohemiancoding.com/sketch -->
    <title>0: Icons / license / 1</title>
    <desc>Created with Sketch.</desc>
    <defs></defs>
    <g id="0:-Icons-/-license-/-1" stroke="none" stroke-width="1" fill="none" fill-rule="evenodd">
        <g id="icon-license-topline" transform="translate(1.000000, 1.000000)" fill="#C499FF">
            <path d="M26.5867049,15.1046087 L28.7846935,14.6308696 L28.8248538,15.6965217 L29.0647593,15.7356522 C29.0647593,15.7356522 31.9423039,13.1316522 33.6208496,15.9725217 L33.8604908,16.0515652 C33.8604908,16.0515652 36.1388002,12.9738261 38.6564866,15.8146957 L38.6963828,22.2073043 C38.6963828,22.2073043 39.5754197,22.7994783 39.9754383,22.7595652 L39.9352779,22.9570435 L39.9754383,23.2333043 L35.8988947,23.2333043 L35.8988947,22.6805217 C35.8988947,22.6805217 37.3774311,22.6416522 37.4173273,22.1285217 C37.4574877,21.6151304 37.3774311,16.7225217 37.3774311,16.7225217 C37.3774311,16.7225217 36.9377805,14.5129565 33.9405474,16.4457391 L33.9405474,22.2863478 C33.9405474,22.2863478 34.1804529,22.9173913 35.0996502,22.6805217 L35.0996502,23.2333043 L30.7430408,23.2333043 L30.7430408,22.6805217 C30.7430408,22.6805217 32.2070454,22.8952174 32.2620017,22.2469565 C32.3016337,21.7732174 32.2620017,16.5250435 32.2620017,16.5250435 C32.2620017,16.5250435 31.2228517,14.5518261 29.0245989,16.604087 L29.0245989,22.3653913 C29.0245989,22.3653913 29.2246082,22.8388696 30.063749,22.6805217 L30.063749,23.2333043 L26.5468087,23.3123478 L26.5066483,22.9964348 C26.5066483,22.9964348 27.3463175,22.8388696 27.2665251,21.6941739 C27.1864686,20.5497391 26.8665065,15.3018261 26.5867049,15.1046087" id="Fill-2"></path>
            <polyline id="Fill-3" points="47 30 47 29 14 29 14 30 47 30"></polyline>
            <path d="M40.9863175,20.7573913 L40.9863175,23.2552174 L42.2923227,23.3355652 C42.2923227,23.3355652 45.3931274,24.5848696 46.4951601,22.0061739 C46.4951601,22.0061739 46.9572688,20.1532174 45.5566753,19.2667826 C44.173784,18.392087 42.4553422,17.5343478 42.2106809,17.0916522 C41.9657554,16.647913 41.9250665,15.5206957 43.2714964,15.2381739 C43.2714964,15.2381739 45.2710609,14.9561739 45.5976283,17.3733913 L46.0462621,17.493913 L46.1276397,15.0367826 L45.3527028,15.1176522 C45.3527028,15.1176522 42.4553422,13.6270435 41.1501296,15.801913 C41.1501296,15.801913 40.0480969,18.0584348 42.088086,19.1864348 C44.1283394,20.3144348 45.2295795,20.7174783 45.2295795,21.5233043 C45.2295795,21.5233043 45.3114855,22.9737391 44.1690282,23.0538261 C44.1690282,23.0538261 42.4553422,23.376 42.047133,22.3291304 C42.2114735,22.7530435 41.4870013,21.1030435 41.3128848,20.7373043 L40.9863175,20.7573913" id="Fill-4"></path>
            <path d="M17.4967183,22.5644348 C16.5347185,22.5065217 16.0274293,22.1866957 15.8176442,21.4335652 C15.5536953,20.4845217 16.6063202,19.5088696 17.1762278,19.1384348 C17.7458712,18.7685217 18.6008647,18.2217391 19.3044641,18.3610435 L19.334056,21.8154783 C19.334056,21.8154783 18.4589823,22.622087 17.4967183,22.5644348 Z M20.6754658,22.4353043 C20.5732153,22.3343478 20.7195893,16.8273913 20.6707099,16.4324348 C20.6707099,16.4324348 20.6458739,15.9067826 20.3253834,15.4823478 C19.6315599,14.5635652 18.7068141,14.4096522 17.7300184,14.3016522 C16.7532227,14.1936522 15.6395646,14.6606087 15.1203859,15.1369565 C13.8957583,16.2597391 14.5695016,17.2841739 15.0036037,17.4106957 C15.3975454,17.5262609 15.7040325,17.3676522 15.9370685,17.0081739 C16.1703686,16.6484348 16.0097271,15.9573913 16.0826499,15.8131304 C16.1555727,15.6691304 16.1703686,15.4823478 16.4617956,15.2084348 C16.7532227,14.9353043 17.7012192,14.690087 18.3572602,14.9353043 C19.0130371,15.18 19.2463372,16.044 19.2463372,16.044 C19.5295737,16.4626957 19.2463372,17.7133043 19.2463372,17.7133043 C19.2611332,17.7133043 17.2636823,18.318 16.3450135,18.9513913 C13.8283839,20.6864348 13.91029,21.7873043 14.0709315,22.4206957 C14.2310446,23.0538261 15.1785127,23.8742609 16.4182005,23.8742609 C17.6570956,23.8742609 18.5028416,22.7947826 18.6484231,22.622087 C18.7942687,22.4493913 19.2302202,22.5461739 19.2302202,22.5461739 L19.2463372,22.6870435 C19.5359148,23.5669565 20.1214109,23.7018261 20.602543,23.7232174 C21.0834108,23.7448696 21.6409003,23.3131304 21.6409003,23.3131304 C21.4659913,23.2807826 20.6754658,22.4353043 20.6754658,22.4353043 Z" id="Fill-5"></path>
            <path d="M24.0576573,22.392 C23.0951291,22.334087 22.58784,22.014 22.3785832,21.2606087 C22.1146344,20.312087 23.1672593,19.335913 23.7366385,18.9654783 C24.3062818,18.5958261 25.1615396,18.0490435 25.8654032,18.188087 L25.8944666,21.6430435 C25.8944666,21.6430435 25.0199214,22.4493913 24.0576573,22.392 Z M28.751931,22.4405217 C27.772229,23.0337391 27.2691673,22.2866087 27.2691673,22.2866087 C27.167181,22.185913 27.3135551,16.6786957 27.2652041,16.2837391 C27.2652041,16.2837391 27.240368,15.7586087 26.9193492,15.3341739 C26.2252614,14.4151304 25.3010441,14.2612174 24.3242483,14.1532174 C23.3474526,14.0452174 22.2337945,14.5121739 21.7146158,14.9885217 C20.489724,16.1115652 21.1637315,17.1357391 21.5980978,17.2625217 C21.9912469,17.378087 22.2974698,17.2192174 22.53077,16.8597391 C22.7640701,16.5 22.6036928,15.8092174 22.6768798,15.6646957 C22.7498026,15.5209565 22.7645985,15.3341739 23.0560256,15.06 C23.3474526,14.7868696 24.2951849,14.541913 24.951226,14.7868696 C25.6075312,15.0318261 25.8405672,15.8955652 25.8405672,15.8955652 C26.1232752,16.3145217 25.8405672,17.5653913 25.8405672,17.5653913 C25.8550989,17.5653913 23.8581765,18.1695652 22.9395076,18.8029565 C20.4228781,20.5382609 20.5045199,21.6391304 20.664633,22.272 C20.8255388,22.9056522 21.7727427,23.7258261 23.0121662,23.7258261 C24.2513255,23.7258261 25.0970716,22.6463478 25.242653,22.4733913 C25.3882344,22.3009565 25.8239217,22.3982609 25.8239217,22.3982609 L25.8405672,22.5383478 C26.1301447,23.4182609 26.7148482,23.5531304 27.1965087,23.5747826 C27.6734133,23.5961739 28.2242975,23.1730435 28.233545,23.166 C28.2375082,23.168087 28.2486051,23.1722609 28.2353945,23.1644348 L28.751931,22.4405217 Z" id="Fill-6"></path>
            <polyline id="Fill-8" points="0.13316339 17.382 1.31366741 17.2672174 1.73667254 18.3941739 2.00379196 17.2366957 3.20516881 17.1952174 2.16337666 16.5735652 2.49998412 15.4497391 1.58342896 16.197913 0.578890847 15.5350435 1.04945433 16.6338261 0.13316339 17.382"></polyline>
            <polyline id="Fill-9" points="0.836762809 9.65295652 1.83971564 10.278 1.47060998 11.424 2.40222528 10.6732174 3.37532203 11.3694783 2.94121995 10.2461739 3.90665453 9.56582609 2.71822412 9.59947826 2.33828571 8.466 2.02466479 9.61956522 0.836762809 9.65295652"></polyline>
            <polyline id="Fill-10" points="5.33340513 3.30808696 5.84571429 4.36356522 4.91621269 5.14069565 6.10913472 4.99434783 6.55882538 6.09495652 6.79556029 4.9166087 7.98002751 4.84591304 6.95514499 4.25113043 7.24366567 3.09234783 6.35775923 3.90286957 5.33340513 3.30808696"></polyline>
            <polyline id="Fill-11" points="11.4573358 1.37452174 12.460817 1.99852174 12.0940893 3.14426087 13.0243835 2.39321739 13.9985371 3.08843478 13.563114 1.9653913 14.5269633 1.28321739 13.3387971 1.31895652 12.9570092 0.186 12.6457662 1.33852174 11.4573358 1.37452174"></polyline>
            <polyline id="Fill-12" points="18.2616151 3.64878261 19.4090925 3.35269565 20.0046288 4.40086957 20.085478 3.21626087 21.2651893 2.98904348 20.1380564 2.53591304 20.2936779 1.37530435 19.5063229 2.25547826 18.4087818 1.75513043 19.0473848 2.76756522 18.2616151 3.64878261"></polyline>
            <polyline id="Fill-13" points="23.1957943 7.7013913 24.3490844 7.97452174 24.3736562 9.1766087 25.0104097 8.16965217 26.1594723 8.51895652 25.3816291 7.59417391 26.0736031 6.64330435 24.9588881 7.0526087 24.2301885 6.10043478 24.3097166 7.29052174 23.1957943 7.7013913"></polyline>
            <path d="M5.77707593,26.7931304 C5.79021153,26.7743478 5.79599119,26.7550435 5.79599119,26.7425217 C5.80282169,26.6908696 5.77707593,26.6595652 5.74476237,26.6402609 L5.68670305,26.6081739 C5.66752508,26.5953913 5.64887254,26.5828696 5.62890644,26.5695652 L5.61682169,26.5888696 C5.64887254,26.6081739 5.63547424,26.6337391 5.60999119,26.6723478 L5.56480475,26.7425217 L5.50070305,26.8445217 C5.47495729,26.8828696 5.46234712,26.9081739 5.43003356,26.8888696 L5.41716068,26.901913 L5.53905898,26.9846087 L5.55219458,26.9655652 C5.51357593,26.94 5.5261861,26.9204348 5.55849966,26.8766087 L5.60342339,26.8066957 L5.63547424,26.8252174 C5.67409288,26.8510435 5.73898271,26.8635652 5.77707593,26.7931304 Z M5.7187539,26.7550435 C5.68670305,26.8066957 5.66148271,26.8126957 5.61682169,26.7806087 L5.64230475,26.7425217 L5.68670305,26.6723478 C5.69983864,26.6465217 5.69983864,26.6465217 5.7187539,26.6595652 C5.74476237,26.6786087 5.74476237,26.703913 5.72584712,26.7425217 C5.72584712,26.7485217 5.72584712,26.7485217 5.7187539,26.7550435 Z" id="Fill-14"></path>
            <path d="M6.30280291,23.7613043 C6.30280291,23.7871304 6.32209046,23.811913 6.35511709,23.8189565 L7.14379312,24.0036522 C7.14960581,24.0036522 7.16255225,24.009913 7.17549869,24.0036522 C7.2079969,23.9971304 7.234154,23.9647826 7.234154,23.9332174 L7.26638799,23.5121739 L7.29809356,23.1292174 C7.29809356,23.109913 7.28567554,23.0913913 7.26638799,23.0778261 C7.25317734,23.0713043 7.234154,23.0655652 7.21460223,23.0713043 C6.93665007,23.1607826 6.6906677,23.307913 6.49039419,23.5121739 C6.42539777,23.5758261 6.36753511,23.6394783 6.31548513,23.7161739 C6.30280291,23.7289565 6.30280291,23.7417391 6.30280291,23.7613043 Z M6.36092978,23.7482609 C6.42539777,23.6587826 6.49039419,23.5823478 6.56807283,23.5121739 C6.75513569,23.3332174 6.9815663,23.2053913 7.23996668,23.1292174 L7.2079969,23.5121739 L7.18183981,23.9332174 C7.18183981,23.94 7.17549869,23.9462609 7.15647535,23.9462609 L6.35511709,23.7545217 L6.36092978,23.7482609 Z" id="Fill-15"></path>
            <path d="M6.57350109,27.6678261 C6.54767501,27.6613043 6.53541414,27.6871304 6.5228924,27.705913 C6.56097935,27.7124348 6.58002283,27.7252174 6.61863153,27.7124348 C6.68202283,27.6550435 6.72637066,27.5658261 6.80958805,27.5337391 L6.80958805,27.5146957 C6.77776196,27.5146957 6.75219674,27.5337391 6.72037066,27.5527826 C6.68854457,27.5851304 6.65019674,27.6806087 6.57350109,27.6678261" id="Fill-16"></path>
            <path d="M6.20189798,26.901913 L6.08763711,26.8510435 L6.07459363,26.8698261 C6.11268059,26.8828696 6.10015885,26.9081739 6.0808545,26.9527826 L6.07459363,26.9595652 L5.99163711,27.1246957 L5.99163711,27.1317391 C5.96607189,27.1758261 5.95981102,27.2021739 5.92146319,27.1823478 L5.91520232,27.2021739 L6.01668059,27.2530435 C6.05581102,27.2718261 6.11894145,27.2976522 6.16381102,27.2590435 C6.17059363,27.2465217 6.1828545,27.234 6.18911537,27.2206957 C6.22172406,27.1510435 6.1828545,27.1056522 6.15102841,27.0871304 C6.17059363,27.0871304 6.20189798,27.093913 6.22772406,27.0738261 C6.2402458,27.0675652 6.24650667,27.0550435 6.25955015,27.036 C6.29137624,26.9655652 6.2402458,26.9204348 6.20189798,26.901913 Z M6.04902841,27.2402609 C6.02294145,27.2269565 6.02998493,27.195913 6.04302841,27.1635652 C6.04902841,27.1635652 6.04902841,27.1573043 6.04902841,27.1510435 L6.08763711,27.0738261 L6.10615885,27.0806087 C6.1442458,27.099913 6.15102841,27.1317391 6.12598493,27.1891304 C6.11894145,27.195913 6.11268059,27.207913 6.10615885,27.2152174 C6.09337624,27.234 6.06807189,27.2465217 6.04902841,27.2402609 Z M6.11268059,27.0550435 L6.13172406,27.0041739 L6.16381102,26.9274783 C6.16381102,26.9204348 6.1768545,26.9204348 6.1828545,26.9274783 C6.21494145,26.94 6.21494145,26.972087 6.19563711,27.0104348 C6.18911537,27.0232174 6.1828545,27.0294783 6.1768545,27.036 C6.15755015,27.0675652 6.13850667,27.0675652 6.11268059,27.0550435 Z" id="Fill-17"></path>
            <path d="M6.45544184,27.042 C6.47474619,27.0294783 6.50005054,27.0166957 6.51283315,26.9846087 C6.51283315,26.972087 6.51961576,26.9595652 6.51283315,26.94 C6.50005054,26.8570435 6.42987663,26.8570435 6.38526793,26.8635652 L6.26396358,26.8888696 L6.26396358,26.9149565 C6.30883315,26.901913 6.30883315,26.9274783 6.32135489,26.9783478 L6.32135489,26.9846087 L6.35970271,27.1698261 L6.35970271,27.1758261 C6.36622445,27.2206957 6.37248532,27.2530435 6.3341375,27.2590435 L6.34065924,27.2778261 L6.45544184,27.2530435 C6.50005054,27.2465217 6.55770271,27.2269565 6.57022445,27.1698261 C6.57022445,27.1573043 6.57022445,27.1385217 6.57022445,27.1246957 C6.55092011,27.0485217 6.50005054,27.036 6.45544184,27.042 Z M6.37248532,26.9081739 C6.36622445,26.8956522 6.37874619,26.8956522 6.38526793,26.8956522 C6.41709402,26.8888696 6.43665924,26.9081739 6.44918097,26.9595652 C6.44918097,26.9655652 6.44918097,26.9783478 6.44918097,26.9846087 C6.44918097,27.0166957 6.43665924,27.036 6.40431141,27.042 L6.3915288,26.9911304 L6.37248532,26.9081739 Z M6.46874619,27.2206957 C6.44239837,27.2269565 6.42987663,27.2021739 6.42335489,27.1698261 C6.42335489,27.1635652 6.42335489,27.1573043 6.41709402,27.1510435 L6.40431141,27.0675652 L6.42335489,27.0615652 C6.46170271,27.0550435 6.4875288,27.0806087 6.50005054,27.1385217 C6.50005054,27.1510435 6.50005054,27.1573043 6.50005054,27.1698261 C6.50005054,27.195913 6.49405054,27.2206957 6.46874619,27.2206957 Z" id="Fill-18"></path>
            <path d="M6.05882511,26.8570435 L6.07212946,26.8445217 L5.98291207,26.7868696 L5.96960772,26.8066957 C5.98291207,26.8126957 6.00195555,26.8252174 5.98291207,26.8510435 C5.96960772,26.8698261 5.93752077,26.901913 5.91899903,26.9149565 L5.81047729,27.0166957 L5.87412946,26.8186957 C5.87412946,26.8126957 5.8806512,26.7931304 5.8866512,26.7806087 C5.89969468,26.7613043 5.91899903,26.7675652 5.9312599,26.7806087 L5.94404251,26.7613043 L5.82299903,26.6843478 L5.81047729,26.6973913 C5.83630338,26.7232174 5.83630338,26.7292174 5.81647729,26.7806087 L5.72047729,27.093913 L5.73378164,27.1056522 L5.98291207,26.8888696 C6.01421642,26.8635652 6.03378164,26.8445217 6.05882511,26.8570435" id="Fill-19"></path>
            <path d="M5.4674032,26.7996522 L5.44769981,26.7868696 C5.40251337,26.8445217 5.37755574,26.8510435 5.33893709,26.8252174 C5.29375065,26.7996522 5.3192337,26.7675652 5.34445404,26.7232174 L5.38386082,26.6595652 C5.41591167,26.6843478 5.42247947,26.6973913 5.39647099,26.7485217 L5.41591167,26.7550435 L5.49314896,26.6212174 L5.48001337,26.6146957 C5.44769981,26.6595652 5.42878455,26.6595652 5.39647099,26.6402609 L5.4542676,26.5442609 C5.46109811,26.538 5.47370828,26.5189565 5.47370828,26.5189565 C5.48001337,26.5121739 5.50602184,26.5254783 5.51232692,26.5314783 C5.54437777,26.5502609 5.55094557,26.5763478 5.53124218,26.6337391 L5.54437777,26.6402609 L5.59613201,26.5502609 L5.40251337,26.4357391 L5.39647099,26.4485217 C5.42878455,26.4673043 5.41591167,26.4931304 5.38964048,26.538 L5.28087777,26.703913 C5.25565743,26.7485217 5.24225913,26.7743478 5.20364048,26.7485217 L5.1973354,26.7675652 L5.40251337,26.8956522 L5.42878455,26.8570435 L5.4674032,26.7996522" id="Fill-20"></path>
            <path d="M6.80966829,27.0675652 C6.80966829,27.1385217 6.79714655,27.1573043 6.74627699,27.1698261 C6.70166829,27.1758261 6.69514655,27.144 6.68210308,27.0806087 L6.64375525,26.9149565 C6.63749438,26.8635652 6.63123351,26.8377391 6.66958134,26.8317391 L6.66958134,26.8126957 L6.52923351,26.8377391 L6.52923351,26.8570435 C6.56758134,26.8510435 6.57358134,26.8766087 6.58636395,26.9274783 L6.62471177,27.1246957 C6.63123351,27.1698261 6.63749438,27.2021739 6.59940742,27.2021739 L6.60566829,27.2269565 L6.84879873,27.1758261 L6.82923351,27.0675652 L6.80966829,27.0675652" id="Fill-21"></path>
            <path d="M7.54122399,26.9846087 L7.50287617,26.8956522 L7.42618052,26.6908696 L7.40687617,26.6908696 L7.36878921,26.8956522 L7.34948486,26.9783478 C7.34270225,27.0166957 7.33670225,27.0738261 7.29809356,27.0806087 L7.30487617,27.099913 L7.40087617,27.093913 L7.40087617,27.0675652 C7.38783269,27.0675652 7.36878921,27.0675652 7.36226747,27.042 L7.36878921,26.972087 L7.46452834,26.9655652 L7.49035443,27.036 C7.49035443,27.0615652 7.46452834,27.0615652 7.4520066,27.0675652 L7.45774573,27.0871304 L7.56626747,27.0806087 L7.59809356,27.0738261 L7.59809356,27.0550435 C7.58557182,27.0550435 7.57305008,27.0485217 7.56626747,27.042 C7.55374573,27.0294783 7.54774573,27.0041739 7.54122399,26.9846087 Z M7.37478921,26.94 L7.38783269,26.8956522 L7.40087617,26.7996522 L7.43870225,26.8956522 L7.4520066,26.9337391 L7.37478921,26.94 Z" id="Fill-22"></path>
            <path d="M6.30940823,24.0673043 L7.11737182,24.6033913 L6.78789811,25.5354783 L7.5697046,24.9417391 L8.35230373,25.5354783 L8.02283002,24.6033913 L8.83052939,24.0673043 L7.8545263,24.0673043 L7.5697046,23.1292174 L7.28567554,24.0673043 L6.30940823,24.0673043 Z M7.5697046,23.3783478 L7.5697046,23.3718261 L7.80274053,24.138 L8.59802189,24.138 L7.93907448,24.5783478 L8.20355177,25.338 L7.5697046,24.8587826 L6.93004475,25.338 L7.20165579,24.5783478 L6.54191574,24.138 L7.33719709,24.138 L7.5697046,23.3783478 Z" id="Fill-23"></path>
            <path d="M7.23098792,26.972087 C7.23098792,27.036 7.21768357,27.093913 7.166814,27.099913 C7.10316183,27.1056522 7.07107487,27.0232174 7.05829226,26.94 C7.04577052,26.8635652 7.05203139,26.7613043 7.11568357,26.7550435 C7.16029226,26.7485217 7.19264009,26.7868696 7.20516183,26.8445217 L7.22446618,26.8377391 L7.20516183,26.7169565 L7.18611835,26.7169565 L7.18611835,26.7550435 C7.16029226,26.7292174 7.13498792,26.7232174 7.10316183,26.7292174 C7.01994444,26.7425217 6.96907487,26.8377391 6.98785748,26.9595652 C7.0074227,27.0738261 7.07107487,27.144 7.15429226,27.1317391 C7.18611835,27.1246957 7.21768357,27.1056522 7.23672705,27.0738261 L7.24977052,27.1056522 L7.268814,27.1056522 L7.24977052,26.972087 L7.23098792,26.972087" id="Fill-24"></path>
            <path d="M6.9668345,27.0550435 L6.92848667,26.8570435 C6.92196493,26.8126957 6.91570406,26.7806087 6.95431276,26.7743478 L6.94753015,26.7550435 L6.80692145,26.7806087 L6.81318232,26.8066957 C6.85231276,26.7931304 6.85779102,26.8252174 6.86431276,26.8698261 L6.90266058,27.0675652 C6.90918232,27.1126957 6.91570406,27.144 6.87657363,27.1510435 L6.88413884,27.1698261 L7.0242258,27.144 L7.01770406,27.1246957 C6.97935624,27.1317391 6.97309537,27.1056522 6.9668345,27.0550435" id="Fill-25"></path>
            <path d="M7.87381385,23.1028696 C8.11345511,23.1798261 8.33301617,23.307913 8.52060746,23.4803478 C8.59802189,23.5565217 8.66935942,23.6457391 8.73435584,23.7354783 L7.94515138,23.9332174 C7.93907448,23.9332174 7.92559961,23.9269565 7.91899429,23.9144348 L7.8870245,23.4863478 L7.86086741,23.1028696 C7.86086741,23.1028696 7.86720852,23.1028696 7.87381385,23.1028696 L7.86720852,23.9144348 C7.86720852,23.9269565 7.86720852,23.9332174 7.87381385,23.9462609 C7.8870245,23.9778261 7.92559961,23.9908696 7.95783361,23.9846087 L8.75311496,23.7926087 C8.77240252,23.7871304 8.78587738,23.7670435 8.79195429,23.7482609 C8.79803119,23.7289565 8.79803119,23.7093913 8.78587738,23.6973913 C8.72722208,23.6206957 8.66935942,23.5502609 8.60462722,23.4803478 C8.40461792,23.2823478 8.15863554,23.1354783 7.8870245,23.052 C7.87381385,23.0462609 7.8545263,23.0462609 7.84157985,23.052 C7.80934586,23.0590435 7.79613521,23.0846087 7.80274053,23.115913 L7.8283692,23.4863478 L7.86720852,23.9144348 L7.87381385,23.1028696" id="Fill-26"></path>
            <path d="M7.63470102,25.0630435 C7.6283599,25.0570435 7.62201879,25.0505217 7.60880814,25.044 C7.59586169,25.0377391 7.58317947,25.0314783 7.5697046,25.0377391 C7.54434015,25.0377391 7.53086528,25.044 7.51210615,25.0630435 L6.97522518,25.6695652 C6.94272697,25.7272174 6.98790741,25.7595652 7.00772339,25.766087 C7.18870935,25.8294783 7.3757722,25.8613043 7.5697046,25.8675652 C7.75782431,25.8675652 7.93907448,25.8417391 8.1192678,25.7848696 C8.13221424,25.7783478 8.20355177,25.74 8.151766,25.682087 L7.63470102,25.0630435 Z M7.5697046,25.803913 C7.38211332,25.803913 7.19531467,25.766087 7.02040562,25.701913 L7.55702237,25.0951304 C7.56336349,25.0951304 7.56336349,25.0951304 7.5697046,25.0891304 C7.57657414,25.0891304 7.58317947,25.0951304 7.58925637,25.0951304 L8.11345511,25.7272174 C7.94515138,25.7848696 7.76469385,25.8104348 7.5697046,25.803913 Z" id="Fill-27"></path>
            <path d="M9.52499617,27.0041739 C9.51247443,26.997913 9.49264835,26.9783478 9.48012661,26.9655652 L9.42925704,26.9204348 L9.24403965,26.7485217 L9.2247353,26.7613043 L9.26960487,26.9149565 L9.30821356,27.042 C9.3147353,27.0806087 9.33977878,27.1385217 9.30821356,27.1573043 L9.3207353,27.1758261 L9.40395269,27.1186957 L9.39143095,27.1056522 C9.37812661,27.1126957 9.359344,27.1186957 9.34682226,27.093913 L9.3207353,27.0294783 L9.40395269,26.9783478 L9.45508313,27.036 C9.46786574,27.0550435 9.44830052,27.0675652 9.44256139,27.0738261 L9.44830052,27.093913 L9.57012661,27.0166957 L9.55682226,26.997913 C9.55030052,27.0041739 9.53803965,27.0104348 9.52499617,27.0041739 Z M9.3147353,26.997913 L9.29543095,26.9204348 L9.27612661,26.8635652 L9.33351791,26.9204348 L9.37812661,26.9595652 L9.3147353,26.997913 Z" id="Fill-28"></path>
            <path d="M9.48994953,22.9567826 C9.4774278,22.982087 9.49594953,23.0011304 9.49594953,23.0269565 C9.50325388,23.0402609 9.51577562,23.0655652 9.53507997,23.0590435 C9.53507997,23.0332174 9.52229736,23.0206957 9.52229736,23.0011304 C9.50951475,22.9888696 9.51577562,22.9502609 9.48994953,22.9567826" id="Fill-29"></path>
            <path d="M8.12480654,26.7485217 C8.16315437,26.7550435 8.15715437,26.7806087 8.14411089,26.8317391 L8.0995022,27.0232174 C8.09245872,27.0738261 8.08645872,27.099913 8.04837176,27.093913 L8.04158915,27.1126957 L8.18245872,27.144 L8.18245872,27.1186957 C8.14411089,27.1126957 8.15037176,27.0871304 8.16315437,27.042 L8.20802394,26.8445217 C8.22002394,26.7996522 8.22002394,26.7675652 8.26515437,26.7806087 L8.26515437,26.7550435 L8.13106741,26.7292174 L8.12480654,26.7485217" id="Fill-30"></path>
            <path d="M9.63094789,26.5502609 C9.62464281,26.5314783 9.63725298,26.5254783 9.64408349,26.5189565 L9.63094789,26.4993913 L9.55344789,26.5502609 L9.56001569,26.5695652 C9.59915976,26.5502609 9.62464281,26.5888696 9.65065128,26.6212174 L9.74023603,26.7550435 L9.44494789,26.6212174 L9.37401569,26.6723478 L9.38688857,26.6908696 C9.40606654,26.6786087 9.41893942,26.6843478 9.44494789,26.6973913 L9.57971908,26.8956522 C9.60520213,26.9337391 9.61807501,26.9527826 9.59206654,26.9783478 L9.59915976,26.997913 L9.68270213,26.94 L9.66930383,26.9204348 C9.63725298,26.9462609 9.61203264,26.901913 9.58602416,26.8698261 L9.4827784,26.7169565 L9.81116823,26.8635652 L9.83060891,26.8510435 L9.66930383,26.6146957 C9.65669366,26.6016522 9.63725298,26.5695652 9.63094789,26.5502609" id="Fill-31"></path>
            <path d="M9.78803758,25.676087 C9.83321801,25.6252174 10.0400969,25.3823478 10.026622,25.2482609 C10.046438,25.2292174 10.2076079,25.0823478 10.1822435,24.8016522 C10.2144775,24.7565217 10.2401062,24.7129565 10.2464473,24.6610435 C10.2794739,24.6033913 10.2527884,24.5587826 10.2464473,24.4951304 C10.2401062,24.4567826 10.2210828,24.4377391 10.1888488,24.4184348 C10.1500095,24.411913 10.0012575,24.2402609 9.90402712,24.3294783 C10.026622,24.0868696 10.0530433,23.9971304 10.0530433,23.9971304 C10.0657255,23.9144348 10.0205451,23.8698261 10.0012575,23.811913 C10.0334915,23.7224348 9.97510044,23.5758261 9.94894334,23.4803478 C9.94286644,23.4675652 9.94286644,23.4482609 9.94286644,23.4357391 C9.8651878,23.3582609 9.92357889,23.2505217 9.8651878,23.1607826 C9.85858247,23.1354783 9.76135206,22.9567826 9.71009472,22.905913 C9.67759651,22.8798261 9.63875719,22.8482609 9.61946964,22.809913 C9.61339274,22.7587826 9.56107855,22.7715652 9.52276765,22.7715652 C9.43848368,22.7587826 9.39964436,22.6886087 9.39356746,22.6763478 C9.30241395,22.5545217 9.16026731,22.4011304 9.08285288,22.3505217 C9.03106712,22.3121739 8.9599938,22.2738261 8.85060959,22.2613043 C8.72722208,22.184087 8.63712542,22.184087 8.61730944,22.1783478 C8.57186479,22.1582609 8.29417685,21.9605217 8.08042847,21.942 C7.73166722,21.909913 7.74434944,22.1269565 7.73800833,22.1783478 C7.83523874,22.3505217 7.94515138,22.3695652 7.94515138,22.3695652 C8.01596048,22.3818261 8.06827467,22.4653043 8.13908378,22.4843478 C8.20355177,22.5096522 8.41703593,22.5926087 8.44240039,22.6053913 C8.48123971,22.6184348 8.50105569,22.644 8.51426634,22.6763478 C8.53989501,22.713913 8.55944678,22.7527826 8.61096833,22.746 C8.61096833,22.746 8.63712542,22.7527826 8.86963293,23.0076522 C8.83052939,23.0713043 8.85668649,23.0846087 8.85668649,23.0846087 C8.85668649,23.0846087 8.89579002,23.0971304 8.90186692,23.244 L8.8891847,23.244 L8.77240252,23.1292174 L8.82392407,23.0076522 L8.55944678,22.815913 L8.45587525,22.8991304 L8.30685908,22.8292174 L8.31346441,22.6951304 L8.00301404,22.5926087 L7.92559961,22.7076522 L7.76469385,22.6815652 L7.73166722,22.5545217 L7.39558818,22.5545217 L7.36308998,22.6815652 L7.20165579,22.7076522 L7.13031826,22.5926087 L6.81326257,22.6951304 L6.82013211,22.8292174 L6.67719283,22.8991304 L6.57414973,22.815913 L6.41905666,22.9246957 C6.41905666,22.9246957 6.44468533,22.8605217 6.46423709,22.815913 C6.42539777,22.7843478 6.47744775,22.7527826 6.50307642,22.7527826 C6.56146751,22.7587826 6.60664794,22.7266957 6.65182838,22.7013913 C6.67138015,22.6886087 6.89701811,22.5926087 6.96888407,22.5417391 C7.01432872,22.5096522 7.05924494,22.4778261 7.08487361,22.4653043 C7.15647535,22.4334783 7.2079969,22.3886087 7.24683622,22.3309565 C7.28567554,22.2866087 7.31156843,22.242 7.343274,22.1973913 C7.343274,22.1783478 7.35014354,22.1582609 7.33059177,22.146 C7.24683622,22.1334783 7.17549869,22.1715652 7.09808426,22.1783478 L7.08487361,22.1655652 C7.12397714,22.1013913 7.23996668,21.9863478 7.22754867,21.9545217 C7.20165579,21.9033913 7.14379312,21.9354783 7.09808426,21.942 C6.68406237,22.011913 6.40611022,22.3309565 6.40611022,22.3309565 C6.35511709,22.3818261 6.30280291,22.4334783 6.29012068,22.4590435 C6.28325114,22.4653043 6.26396358,22.4778261 6.25788668,22.4653043 C6.27664581,22.4011304 6.27664581,22.3565217 6.27664581,22.3309565 C6.27664581,22.3309565 6.27664581,22.2673043 6.25788668,22.2542609 C6.22565269,22.2096522 6.13449918,22.2673043 6.07003119,22.3309565 C6.02432232,22.3633043 5.91520232,22.4843478 5.88270412,22.5354783 C5.79815593,22.6507826 5.72047729,22.7715652 5.67556107,22.905913 C5.66895574,22.9246957 5.66895574,22.9567826 5.63672174,22.9630435 C5.63011642,22.917913 5.63672174,22.8482609 5.60448775,22.809913 C5.57251797,22.7778261 5.5268091,22.7971304 5.49483932,22.8229565 C5.44913046,22.8798261 5.35876959,23.0011304 5.2681445,23.1933913 C5.18386053,23.3783478 5.09349966,23.6206957 5.08742276,23.9269565 C5.08055322,24.2653043 5.28135516,24.615913 5.28769627,24.6294783 C5.2943016,24.6487826 5.3003785,24.6675652 5.28769627,24.6863478 C5.27474983,24.6610435 5.26153918,24.6487826 5.24251584,24.6294783 C5.24251584,24.6294783 5.15162654,24.5144348 5.06813521,24.4693043 C5.02269056,24.4693043 5.00974412,24.4951304 5.00287458,24.5272174 C4.99679768,24.5525217 4.99019235,24.5908696 4.99019235,24.6294783 C4.98411545,24.8655652 5.04858344,25.2362609 5.14554964,25.338 C5.21028184,25.472087 5.61796262,25.9249565 5.77279148,26.0144348 C5.91520232,26.0973913 5.97280077,26.2442609 6.08984717,26.3530435 C6.12155274,26.372087 6.20557249,26.4232174 6.32843157,26.4417391 C6.35511709,26.4615652 6.45155487,26.4673043 6.47137085,26.5502609 C6.46423709,26.5763478 6.45789598,26.6016522 6.45789598,26.6272174 C6.44468533,26.6658261 6.4320031,26.703913 6.40611022,26.7425217 C6.27056891,26.7743478 6.19923138,26.7675652 6.12155274,26.7292174 C6.0055632,26.6595652 5.86341656,26.5763478 5.74663438,26.5061739 C5.57859487,26.4166957 5.64359128,26.4041739 5.66287884,26.3590435 C5.68824329,26.2831304 5.74663438,26.2121739 5.73395215,26.1229565 C5.72761104,26.0337391 5.54636087,25.9249565 5.5268091,25.9056522 C5.48796978,25.8868696 5.45573579,25.874087 5.44913046,25.9126957 C5.43010712,25.9826087 5.41029114,26.0527826 5.38492668,26.1229565 C5.23617472,26.0337391 5.11357985,26.0658261 5.06813521,26.1362609 C5.06126567,26.1866087 4.96403525,26.4806087 4.91911903,26.5763478 C4.89322615,26.6402609 4.95795835,26.7485217 5.00974412,26.8186957 C5.03590121,26.8570435 5.79815593,27.4510435 6.25788668,27.4510435 C6.31548513,27.4510435 6.61298906,27.380087 6.6906677,27.368087 C6.69727303,27.368087 6.71101211,27.3743478 6.70387835,27.3868696 C6.63888194,27.4698261 6.50307642,27.4698261 6.45155487,27.5786087 C6.41905666,27.5973913 6.38021734,27.6229565 6.34824755,27.6422609 C6.29012068,27.6746087 6.23780649,27.705913 6.17386692,27.7124348 C6.11521162,27.7252174 6.03779719,27.7377391 6.03779719,27.7698261 C6.07003119,27.872087 6.36753511,27.9618261 6.41905666,27.9746087 C6.50307642,27.999913 6.58075506,27.9673043 6.64522305,27.9104348 C6.67138015,27.8846087 6.6906677,27.7828696 6.76174102,27.776087 C6.79423923,27.7507826 6.85289453,27.6996522 6.91709831,27.6422609 C6.98790741,27.5851304 7.27246489,27.368087 7.32451487,27.3550435 C7.3696953,27.2778261 7.45397927,27.2269565 7.53086528,27.2021739 L7.5697046,27.234 L7.57657414,27.2402609 C7.65398857,27.2402609 7.75782431,27.2590435 7.8283692,27.2206957 C7.90604785,27.3104348 8.00961937,27.3996522 8.1192678,27.4442609 C8.17739467,27.476087 8.26194286,27.5658261 8.27462508,27.5851304 C8.29417685,27.6104348 8.32033395,27.6422609 8.3396215,27.6678261 C8.35230373,27.6806087 8.36525017,27.6806087 8.37846082,27.6678261 L8.48810925,27.7635652 C8.50105569,27.7698261 8.52060746,27.776087 8.53328969,27.7573043 C8.54623613,27.7573043 8.64980765,27.8658261 8.69472387,27.8913913 C8.74043274,27.8786087 8.74043274,27.9354783 8.75972029,27.9618261 C8.77927206,27.999913 9.03767245,27.9931304 9.1216922,27.8467826 C9.14732087,27.8337391 9.17981908,27.8595652 9.20597617,27.8337391 C9.23821017,27.8081739 9.34838702,27.7573043 9.28312639,27.7507826 C9.2247353,27.7377391 9.19250131,27.693913 9.12750489,27.6996522 C9.09553511,27.6871304 9.08285288,27.6422609 9.05061889,27.6297391 C9.01177956,27.6297391 8.92115448,27.5911304 8.89579002,27.5851304 C8.74043274,27.5081739 8.67570053,27.4252174 8.61730944,27.405913 C8.60462722,27.3933913 8.60462722,27.368087 8.62365056,27.368087 C8.65588455,27.368087 8.84347584,27.380087 9.00517424,27.3868696 C9.06990644,27.3868696 9.12750489,27.3868696 9.16713685,27.380087 C9.56794809,27.2848696 9.96241821,26.9527826 10.0400969,26.901913 C10.1045648,26.8377391 10.2012668,26.7292174 10.2012668,26.6786087 C10.1949257,26.5953913 10.1172471,26.3908696 10.0850131,26.2893913 C10.0789362,26.276087 10.0530433,26.1229565 9.9946522,26.1229565 C9.92965579,26.0467826 9.79411448,26.1487826 9.74893404,26.1362609 C9.74232872,26.1362609 9.7359876,26.1166957 9.72938228,26.0908696 C9.71643584,26.0527826 9.70375361,25.9826087 9.69027874,25.938 C9.58089453,25.8868696 9.65223206,25.8808696 9.67759651,25.8487826 C9.76135206,25.8104348 9.69714828,25.707913 9.78803758,25.676087 Z M8.31346441,22.248 C8.20355177,22.2354783 8.10658557,22.1392174 8.0870338,22.1269565 L8.06827467,22.1655652 C8.00301404,22.1522609 7.86086741,22.0502609 7.86720852,22.1013913 C7.86720852,22.1334783 8.02283002,22.1783478 8.06827467,22.2224348 C8.0870338,22.2161739 8.10658557,22.2033913 8.12587312,22.2292174 C8.1192678,22.2542609 8.06166935,22.2354783 8.0870338,22.2673043 C8.17131777,22.2613043 8.24926063,22.2803478 8.32614663,22.2928696 C8.36525017,22.3053913 8.27462508,22.3505217 8.27462508,22.3695652 C8.27462508,22.3886087 8.31346441,22.3695652 8.33301617,22.3565217 C8.40461792,22.3121739 8.39114305,22.3565217 8.43605927,22.344 C8.46221637,22.344 8.48123971,22.344 8.48810925,22.3633043 C8.46908591,22.4076522 8.48810925,22.4590435 8.48123971,22.5096522 C8.37846082,22.5036522 8.42337705,22.4394783 8.39114305,22.4457391 C8.35230373,22.4590435 8.30685908,22.4653043 8.26194286,22.4715652 C8.22944465,22.4011304 8.151766,22.4522609 8.10658557,22.4076522 C8.07435157,22.3505217 8.15863554,22.3886087 8.16471245,22.3695652 C8.151766,22.2928696 7.99667293,22.3252174 7.97078005,22.3121739 C7.94515138,22.2738261 7.93907448,22.2033913 7.87381385,22.2033913 C7.8545263,22.2033913 7.83523874,22.1906087 7.82176387,22.1715652 C7.79032252,22.1392174 7.81568697,22.0309565 7.87381385,22.0374783 C7.90604785,22.0374783 7.94515138,22.1076522 7.97078005,22.044 C7.97078005,22.0249565 7.97078005,21.9931304 7.99667293,21.9863478 C8.06166935,21.974087 8.08042847,22.0755652 8.14542489,22.0502609 C8.17739467,22.044 8.17739467,22.1141739 8.2223109,22.1013913 C8.2426553,22.0755652 8.26801976,22.0627826 8.29417685,22.0755652 C8.33301617,22.0823478 8.34596262,22.1269565 8.37846082,22.1334783 C8.40461792,22.1582609 8.45587525,22.1522609 8.48123971,22.1783478 C8.49445036,22.184087 8.50105569,22.1973913 8.49445036,22.2224348 C8.52668436,22.2613043 8.59802189,22.184087 8.59194499,22.2738261 C8.54623613,22.2928696 8.56578789,22.3372174 8.48123971,22.3184348 C8.41043061,22.3121739 8.34596262,22.2292174 8.30078218,22.184087 C8.27462508,22.1906087 8.31346441,22.2354783 8.31346441,22.248 Z M8.87623826,22.9382609 C8.83713472,22.8738261 8.75311496,22.8482609 8.72722208,22.7778261 C8.71453985,22.6815652 8.64980765,22.7013913 8.61096833,22.6951304 C8.60462722,22.6886087 8.59802189,22.6815652 8.59194499,22.6763478 C8.56578789,22.644 8.55310567,22.6121739 8.52668436,22.580087 C8.53328969,22.5545217 8.57186479,22.5289565 8.55944678,22.4966087 C8.50105569,22.4457391 8.52668436,22.2866087 8.66275409,22.3184348 C8.70106499,22.3252174 8.73435584,22.2866087 8.77240252,22.3053913 C8.79195429,22.3252174 8.86963293,22.344 8.76632562,22.4076522 C8.75311496,22.4076522 8.74043274,22.3818261 8.72722208,22.4011304 C8.73435584,22.4269565 8.74043274,22.4522609 8.72088097,22.4715652 C8.67570053,22.4457391 8.64373075,22.3951304 8.59194499,22.3818261 C8.58481123,22.3818261 8.57847012,22.3951304 8.58481123,22.4011304 C8.62365056,22.4457391 8.70793453,22.4590435 8.70793453,22.5354783 C8.69472387,22.5675652 8.64373075,22.5232174 8.64980765,22.5605217 C8.66275409,22.5735652 8.68230586,22.5675652 8.69472387,22.5735652 C8.70106499,22.6121739 8.70793453,22.644 8.71453985,22.6763478 C8.73435584,22.713913 8.75311496,22.7527826 8.79803119,22.7778261 C8.82392407,22.8417391 8.89579002,22.8798261 8.89579002,22.9630435 C8.87623826,22.9693043 8.88231516,22.944 8.87623826,22.9382609 Z M8.81837559,22.713913 C8.81150605,22.7013913 8.79803119,22.6886087 8.78587738,22.6763478 C8.76632562,22.6507826 8.74677385,22.6184348 8.75972029,22.580087 C8.82392407,22.5487826 8.74677385,22.4715652 8.79195429,22.4334783 C8.93383671,22.3053913 8.9599938,22.3565217 8.9599938,22.3565217 C8.97954557,22.3951304 8.99909734,22.4269565 9.01177956,22.4653043 C9.03106712,22.4966087 9.08285288,22.4269565 9.08285288,22.4269565 C9.09553511,22.4522609 9.10874576,22.4778261 9.1216922,22.5096522 C9.13490286,22.5417391 9.19250131,22.5354783 9.18589598,22.580087 C9.17347797,22.6184348 9.13490286,22.6309565 9.16713685,22.6627826 C9.17981908,22.6815652 9.18589598,22.7076522 9.21945104,22.7013913 C9.24428707,22.6815652 9.2247353,22.6121739 9.27017995,22.6309565 C9.27678528,22.644 9.28312639,22.6627826 9.28973172,22.6763478 C9.30928349,22.7013913 9.31588881,22.7266957 9.35419971,22.7527826 C9.40624969,22.7778261 9.30928349,22.8605217 9.32857104,22.8991304 C9.36106925,22.944 9.33491215,23.0206957 9.30241395,23.0590435 C9.26410305,23.0913913 9.25115661,22.9502609 9.27678528,22.8863478 C9.27678528,22.8798261 9.27678528,22.8670435 9.26410305,22.8670435 C9.23821017,22.8863478 9.24428707,22.9309565 9.2247353,22.9502609 C9.1156153,22.7266957 9.07677598,22.6121739 9.07677598,22.6121739 C9.04374935,22.6246957 9.06990644,22.6627826 9.06990644,22.6886087 C8.99909734,22.6121739 8.94070625,22.5289565 8.85668649,22.4653043 C8.85668649,22.4522609 8.85060959,22.4590435 8.83713472,22.4590435 C8.81150605,22.4653043 8.91454915,22.5735652 8.9861509,22.6627826 C8.9599938,22.6567826 8.93383671,22.644 8.90847225,22.6627826 C8.92115448,22.6951304 8.9599938,22.6763478 8.97954557,22.6886087 C9.05722421,22.74 9.1156153,22.8229565 9.16026731,22.8931304 L9.16026731,22.9246957 C9.12750489,22.917913 9.09553511,22.8863478 9.06330111,22.905913 C9.07677598,22.9309565 9.10874576,22.9382609 9.13490286,22.944 C9.20597617,22.9951304 9.25115661,23.0655652 9.26410305,23.1417391 C9.25115661,23.1545217 9.23821017,23.1545217 9.2247353,23.1545217 C9.19937085,23.115913 9.15366199,23.1028696 9.14732087,23.0590435 C9.1216922,23.0269565 9.09553511,22.9888696 9.05061889,22.9888696 C9.03106712,23.0011304 8.99909734,23.0206957 8.9861509,22.9888696 C8.91454915,22.944 8.9861509,22.8545217 8.90186692,22.8229565 C8.86355603,22.7908696 8.82392407,22.7650435 8.81837559,22.713913 Z M6.57414973,22.905913 L6.67138015,22.982087 L6.90388765,22.8670435 L6.89701811,22.746 L7.10468959,22.6763478 L7.17549869,22.7843478 L7.42782218,22.74 L7.45979196,22.6246957 L7.68040988,22.6246957 L7.71264387,22.74 L7.96443893,22.7843478 L8.03551225,22.6763478 L8.2426553,22.746 L8.23578576,22.8670435 L8.46908591,22.982087 L8.56578789,22.905913 L8.74677385,23.0332174 L8.69472387,23.1482609 L8.84347584,23.2886087 C8.86355603,23.4033913 8.90186692,23.4863478 8.90186692,23.4863478 C8.90186692,23.4863478 8.94070625,23.601913 9.03106712,23.5886087 L8.97267603,23.6394783 C9.09553511,23.9908696 9.25749772,24.0868696 9.25749772,24.0868696 L9.28973172,24.2973913 L9.41311923,24.3294783 L9.41311923,24.5465217 C9.41311923,24.5465217 9.34838702,24.6033913 9.33491215,24.7635652 C9.28973172,24.5908696 9.28312639,24.5525217 9.28312639,24.5525217 C9.25115661,24.2778261 9.1013478,24.3232174 9.04374935,24.3613043 C9.03767245,24.3675652 9.02525443,24.380087 9.01177956,24.3996522 C9.01177956,24.3738261 9.01177956,24.3482609 9.01177956,24.3232174 C9.01177956,24.3041739 9.00517424,24.2911304 8.99909734,24.2778261 C8.97954557,24.2522609 8.94731157,24.2462609 8.92115448,24.2590435 L8.53328969,24.4184348 L8.17131777,24.5650435 C8.16471245,24.5713043 8.151766,24.5713043 8.14542489,24.5848696 C8.1192678,24.6104348 8.1192678,24.6487826 8.13908378,24.674087 L8.56578789,25.3635652 C8.57847012,25.3758261 8.59802189,25.3891304 8.61730944,25.3891304 C8.63712542,25.3891304 8.65588455,25.3758261 8.66935942,25.3635652 C8.81150605,25.172087 8.90847225,24.9613043 8.9660707,24.7377391 C8.9660707,24.7505217 9.00517424,24.7888696 8.99909734,24.8973913 C9.01177956,24.9485217 9.05061889,25.0184348 8.99249201,25.0891304 C8.9861509,25.1016522 8.97267603,25.134 8.97267603,25.172087 C8.9599938,25.2166957 8.95365269,25.2738261 8.94731157,25.2928696 C8.93383671,25.3567826 9.1156153,25.3891304 9.1216922,25.4337391 L8.99909734,25.5993913 L8.88231516,25.5547826 L8.69472387,25.7332174 L8.74677385,25.8487826 L8.56578789,25.976087 L8.46908591,25.8993913 L8.23578576,26.0144348 L8.2426553,26.1362609 L8.03551225,26.205913 L7.96443893,26.0973913 L7.71264387,26.142 L7.68040988,26.2635652 L7.45979196,26.2635652 L7.42782218,26.142 L7.17549869,26.0973913 L7.10468959,26.205913 L6.89701811,26.1362609 L6.90388765,26.0144348 L6.67138015,25.8993913 L6.57414973,25.976087 L6.40003332,25.8487826 L6.44468533,25.7332174 L6.26396358,25.5547826 L6.14136872,25.5993913 L6.08984717,25.5229565 C6.12868649,25.4402609 6.19923138,24.9292174 6.18628494,24.8266957 C6.24441182,25.0314783 6.34164223,25.2229565 6.47137085,25.3951304 C6.47744775,25.4084348 6.49039419,25.4144348 6.50941753,25.419913 C6.53557462,25.4272174 6.56807283,25.4144348 6.58075506,25.3891304 L6.76808213,25.0891304 L7.00138228,24.705913 C7.00772339,24.6996522 7.01432872,24.6863478 7.01432872,24.680087 C7.02040562,24.6417391 7.00138228,24.6104348 6.96888407,24.5971304 L6.76174102,24.5144348 L6.20557249,24.2911304 C6.18628494,24.284087 6.16699738,24.2911304 6.15405094,24.3041739 C6.13449918,24.3101739 6.12868649,24.3294783 6.12868649,24.3482609 C6.12868649,24.380087 6.12868649,24.411913 6.12868649,24.4377391 C6.1086063,24.4056522 6.06316165,24.3996522 6.03145608,24.4314783 C6.0055632,24.4630435 5.96672387,24.5587826 5.92814877,24.6294783 C5.90199167,24.674087 5.88270412,24.7129565 5.86949346,24.705913 L5.85733966,24.6294783 L5.84994169,24.5848696 L5.72761104,24.5525217 L5.72761104,24.3354783 L5.84994169,24.3041739 L5.87609879,24.138 L5.88878102,24.0487826 L5.84994169,24.0229565 C5.88270412,23.9778261 6.21878315,23.634 6.23172959,23.3522609 L6.39316378,23.1933913 L6.44468533,23.1482609 L6.40003332,23.0332174 L6.57414973,22.905913 Z M9.58089453,24.6675652 C9.57455341,24.6863478 9.51616232,24.6487826 9.4833999,24.6550435 C9.41311923,24.705913 9.44535322,24.7828696 9.45116591,24.8527826 C9.41919613,24.8402609 9.36714615,24.8141739 9.36106925,24.7948696 C9.35419971,24.7314783 9.37401569,24.6610435 9.39964436,24.615913 C9.42500881,24.5650435 9.59331254,24.6550435 9.56107855,24.4184348 C9.56107855,24.411913 9.56107855,24.4056522 9.56107855,24.3996522 C9.56794809,24.4056522 9.57455341,24.411913 9.58089453,24.4184348 C9.63241608,24.4886087 9.6004463,24.5908696 9.58089453,24.6675652 Z M9.20597617,25.2550435 C9.21231729,25.2673043 9.20597617,25.2806087 9.20597617,25.2928696 C9.13490286,25.2613043 9.15366199,25.2229565 9.08285288,25.2229565 C9.06990644,25.2229565 9.06990644,25.2362609 9.07677598,25.242 C9.12750489,25.2613043 9.17981908,25.3121739 9.19250131,25.3698261 C9.17981908,25.3891304 9.16026731,25.4016522 9.14097976,25.3951304 C9.09553511,25.2993913 9.01177956,25.338 9.00517424,25.305913 C9.01177956,25.2613043 9.01177956,25.2101739 9.02525443,25.1650435 C9.03767245,25.0758261 9.14732087,25.0314783 9.16026731,24.9798261 C9.18589598,25.011913 9.18589598,25.1462609 9.18589598,25.172087 C9.18589598,25.2033913 9.17981908,25.2292174 9.20597617,25.2550435 Z M9.03767245,24.8076522 C9.04374935,24.7948696 9.06330111,24.7948696 9.05722421,24.7828696 C9.04374935,24.7635652 9.05061889,24.7505217 9.00517424,24.7377391 C8.9599938,24.7249565 8.97267603,24.6610435 8.9861509,24.6487826 C9.00517424,24.6675652 9.03106712,24.674087 9.05722421,24.6675652 C9.09553511,24.6487826 9.1216922,24.705913 9.10874576,24.7249565 C9.08285288,24.7635652 9.1216922,24.8141739 9.07677598,24.8402609 C9.07677598,24.8587826 9.08285288,24.878087 9.08285288,24.8973913 C9.09553511,24.936 9.1013478,24.9798261 9.06330111,25.0056522 C9.02525443,24.9798261 9.08285288,24.9292174 9.03767245,24.903913 C9.03767245,24.8973913 9.03767245,24.8973913 9.03767245,24.8973913 C9.02525443,24.8655652 9.03767245,24.8337391 9.03767245,24.8076522 Z M8.94070625,24.5465217 C8.90847225,24.8266957 8.79803119,25.0951304 8.62365056,25.3314783 C8.61730944,25.3314783 8.61730944,25.3314783 8.61096833,25.3252174 L8.18426421,24.6417391 C8.17739467,24.6417391 8.17739467,24.6294783 8.19086954,24.615913 L8.68230586,24.4184348 L8.95365269,24.3101739 C8.95365269,24.3101739 8.95365269,24.3161739 8.95365269,24.3232174 C8.95365269,24.3996522 8.95365269,24.476087 8.94070625,24.5465217 Z M9.16713685,24.7828696 C9.17981908,24.7828696 9.17347797,24.8467826 9.16713685,24.8973913 C9.16026731,24.9101739 9.16026731,24.9226957 9.16026731,24.9292174 C9.15366199,24.9292174 9.14732087,24.9166957 9.14097976,24.8973913 C9.14097976,24.8846087 9.13490286,24.776087 9.16713685,24.7828696 Z M9.25749772,25.172087 C9.26410305,25.134 9.25749772,25.0891304 9.28312639,25.0630435 C9.28312639,25.0505217 9.28312639,25.044 9.27017995,25.0377391 C9.25115661,25.044 9.23134063,25.1144348 9.2247353,25.1269565 C9.19250131,25.0891304 9.21945104,25.0184348 9.19250131,24.9738261 C9.19250131,24.9485217 9.19250131,24.9226957 9.19250131,24.8973913 C9.19937085,24.7948696 9.2247353,24.6933913 9.16026731,24.615913 C9.16026731,24.5908696 9.13490286,24.4826087 9.12750489,24.4502609 C9.1156153,24.4442609 9.10874576,24.4567826 9.10874576,24.4630435 C9.10874576,24.4951304 9.13490286,24.615913 9.14097976,24.6487826 C9.1156153,24.6354783 9.06990644,24.615913 9.04374935,24.6354783 C9.02525443,24.6104348 9.01812068,24.5783478 9.01812068,24.5525217 L9.00517424,24.476087 C9.05061889,24.4502609 9.06330111,24.411913 9.1013478,24.3868696 C9.12750489,24.3933913 9.13490286,24.4252174 9.17347797,24.4184348 C9.19250131,24.411913 9.21231729,24.3933913 9.21945104,24.4184348 C9.23821017,24.4630435 9.19937085,24.5073913 9.20597617,24.5465217 C9.20597617,24.5525217 9.20597617,24.5587826 9.21231729,24.5650435 L9.25115661,24.5525217 C9.26410305,24.5650435 9.27017995,24.5848696 9.25749772,24.6033913 C9.23821017,24.680087 9.32857104,24.7565217 9.27678528,24.7948696 C9.21945104,24.8337391 9.24428707,24.9101739 9.25115661,24.9292174 C9.29633705,24.9226957 9.30241395,24.8587826 9.34838702,24.878087 C9.36714615,24.8973913 9.41919613,25.1073913 9.33491215,25.1462609 C9.28312639,25.1848696 9.30241395,25.2673043 9.25115661,25.3121739 C9.23821017,25.2806087 9.25749772,25.1848696 9.25749772,25.172087 Z M9.52276765,24.4184348 C9.52276765,24.4377391 9.52276765,24.5073913 9.4833999,24.5144348 L9.4833999,24.2973913 C9.4833999,24.2973913 9.55447322,24.2973913 9.51616232,24.3542609 C9.51616232,24.3868696 9.52276765,24.4184348 9.52276765,24.4184348 Z M7.97712116,26.5695652 C7.97712116,26.5314783 8.01596048,26.4931304 8.04845869,26.4738261 C8.08042847,26.4553043 8.17739467,26.4101739 8.27462508,26.372087 C8.3718555,26.34 8.58481123,26.2121739 8.60462722,26.3206957 C8.61096833,26.34 8.59802189,26.3590435 8.58481123,26.372087 C8.57847012,26.372087 8.57847012,26.372087 8.57186479,26.372087 C8.52060746,26.3778261 8.46221637,26.4101739 8.39721995,26.3976522 C8.35838063,26.4166957 8.19773908,26.5573043 8.13221424,26.5695652 C8.10658557,26.5828696 8.06827467,26.5888696 8.08042847,26.5502609 C8.08042847,26.5121739 7.99667293,26.5695652 7.97712116,26.5695652 Z M8.57847012,26.2186957 C8.52060746,26.2186957 8.30078218,26.3081739 8.16471245,26.372087 C8.10658557,26.3908696 8.06827467,26.4101739 8.05506402,26.4166957 C7.97712116,26.4485217 7.97078005,26.5061739 7.91238896,26.5573043 C7.86086741,26.5633043 7.82176387,26.5695652 7.78292455,26.5314783 C7.75121898,26.4806087 7.64738324,26.5061739 7.63470102,26.5121739 C7.60880814,26.5314783 7.58925637,26.5189565 7.5697046,26.5121739 C7.55094547,26.4993913 7.53086528,26.4871304 7.50550082,26.4871304 C7.44710973,26.4931304 7.3757722,26.4931304 7.33719709,26.5442609 C7.31156843,26.5633043 7.234154,26.5695652 7.18870935,26.4931304 C7.10468959,26.3848696 6.94272697,26.3081739 6.83307855,26.276087 C6.78789811,26.2567826 6.74905879,26.2507826 6.73584814,26.2442609 C6.69727303,26.238 6.63254082,26.238 6.56807283,26.3530435 C6.22565269,26.1610435 6.19262605,25.8547826 6.19262605,25.8547826 C6.11521162,25.701913 6.1086063,25.6888696 6.1086063,25.6888696 L6.24441182,25.6374783 L6.36092978,25.7527826 L6.30940823,25.874087 L6.57414973,26.0658261 L6.68406237,25.9826087 L6.82594479,26.0527826 L6.82013211,26.1866087 L7.13692358,26.2893913 L7.2079969,26.174087 L7.3696953,26.199913 L7.40219351,26.334 L7.73800833,26.334 L7.77050654,26.199913 L7.93246915,26.174087 L8.00301404,26.2893913 L8.32033395,26.1866087 L8.31346441,26.0527826 L8.45587525,25.9826087 L8.56578789,26.0658261 L8.83052939,25.874087 L8.77927206,25.7527826 L8.89579002,25.6374783 L9.00517424,25.676087 C9.00517424,25.676087 9.03106712,25.6888696 8.90847225,25.8232174 C8.90847225,25.8232174 8.85668649,26.0846087 8.64980765,26.3081739 C8.62365056,26.2831304 8.61730944,26.2317391 8.57847012,26.2186957 Z M7.2079969,26.5828696 C7.21460223,26.5888696 7.20165579,26.6016522 7.18870935,26.6081739 C7.18870935,26.6081739 7.16915758,26.6146957 7.05290383,26.5888696 C6.99451274,26.5763478 6.91049298,26.4993913 6.87746634,26.5121739 C6.86504833,26.5121739 6.85289453,26.5061739 6.83307855,26.4993913 C6.75513569,26.4738261 6.64522305,26.3908696 6.6198586,26.372087 C6.60664794,26.3653043 6.65182838,26.2831304 6.76808213,26.301913 C6.79423923,26.3081739 6.83307855,26.3206957 6.83307855,26.3206957 C6.92343942,26.3530435 7.10468959,26.4357391 7.2079969,26.5828696 Z M6.08297763,24.6294783 C6.08984717,24.5783478 6.08984717,24.5465217 6.08297763,24.5272174 L6.07663651,24.5144348 C6.07003119,24.5204348 6.05761317,24.5650435 6.05074363,24.6294783 C6.02432232,24.8402609 6.0055632,25.2673043 6.02432232,25.4908696 C6.02432232,25.5229565 6.03145608,25.6252174 6.01798121,25.6252174 L5.99869366,25.6252174 C5.96672387,25.5863478 5.99261676,25.5354783 5.97914189,25.4848696 C5.96038276,25.419913 5.94690789,25.3507826 5.93396145,25.2806087 C5.93396145,25.2673043 5.93396145,25.2550435 5.93396145,25.242 C5.87609879,25.1530435 5.92154344,24.8337391 5.98627564,24.6294783 C6.01798121,24.5204348 6.05074363,24.4442609 6.07663651,24.4502609 C6.11521162,24.4567826 6.14136872,24.5332174 6.15405094,24.6294783 C6.17386692,24.7948696 6.15405094,25.0314783 6.11521162,25.0823478 C6.1086063,25.1587826 6.10252939,25.242 6.08984717,25.3184348 C6.08984717,25.344 6.1086063,25.3698261 6.07003119,25.3698261 C6.05761317,25.3698261 6.06316165,25.338 6.07003119,25.3252174 C6.01798121,25.2673043 6.07003119,24.8337391 6.08297763,24.6294783 Z M5.48796978,24.6417391 C5.51412688,24.6487826 5.52046799,24.6417391 5.5268091,24.6294783 C5.53315022,24.615913 5.53975554,24.5971304 5.54636087,24.5908696 C5.60448775,24.5908696 5.68216639,24.5848696 5.71387196,24.6221739 C5.71387196,24.6294783 5.71387196,24.6294783 5.71387196,24.6294783 C5.73395215,24.6863478 5.73395215,24.7377391 5.74663438,24.7888696 C5.75931661,24.8527826 5.60448775,24.872087 5.59841085,24.9166957 C5.60448775,24.9868696 5.65019661,25.0505217 5.62351109,25.1269565 C5.60448775,25.0570435 5.54636087,24.9798261 5.53975554,24.8973913 C5.47528755,24.7698261 5.48162867,24.6863478 5.48796978,24.6417391 Z M5.51412688,24.138 C5.55930731,23.8891304 5.67556107,23.6908696 5.73395215,23.6718261 C5.74082169,23.7093913 5.70145395,23.7482609 5.67556107,23.7798261 C5.63011642,23.8953913 5.59127709,24.0161739 5.5529662,24.138 C5.53975554,24.2013913 5.52046799,24.2653043 5.50778576,24.3294783 L5.50118044,24.3232174 C5.50118044,24.2590435 5.50778576,24.1951304 5.51412688,24.138 Z M5.60448775,24.1312174 C5.61796262,23.8189565 6.12155274,23.2377391 6.20557249,23.2309565 C6.29012068,23.2309565 6.02432232,23.7871304 5.85733966,23.9332174 C5.80502547,24.0036522 5.73395215,24.0673043 5.68216639,24.138 C5.67556107,24.1570435 5.66287884,24.1823478 5.65627351,24.2013913 C5.65019661,24.2081739 5.64359128,24.2141739 5.63011642,24.2141739 C5.63011642,24.1951304 5.63672174,24.1698261 5.65627351,24.138 C5.74082169,23.9332174 6.06316165,23.4996522 6.16699738,23.3332174 C6.16699738,23.3332174 6.18020804,23.307913 6.15405094,23.313913 C6.15405094,23.313913 5.93396145,23.5121739 5.63011642,24.138 L5.58520019,24.2337391 L5.57251797,24.2462609 C5.57859487,24.2081739 5.57859487,24.1630435 5.60448775,24.1312174 Z M6.29012068,23.1933913 L6.25075293,23.2309565 C6.24441182,23.2252174 6.24441182,23.2121739 6.24441182,23.1996522 C6.25788668,23.1607826 6.32843157,23.1028696 6.34164223,23.0846087 L6.36092978,23.1354783 L6.29012068,23.1933913 Z M6.11521162,23.2053913 C6.08297763,23.2693043 6.01798121,23.3332174 5.96038276,23.3522609 C6.0055632,23.2823478 6.07003119,23.1996522 6.07003119,23.1996522 C6.1471814,23.0971304 6.25075293,22.9630435 6.30940823,22.8863478 L6.32843157,22.8738261 C6.35511709,22.9309565 6.24441182,23.1292174 6.11521162,23.2053913 Z M5.80502547,24.138 L5.7854737,24.2462609 L5.65627351,24.2778261 L5.65627351,24.5525217 C5.65627351,24.5525217 5.61796262,24.54 5.58520019,24.5332174 C5.56564843,24.4442609 5.57859487,24.3933913 5.57859487,24.3933913 C5.59127709,24.3354783 5.64359128,24.2715652 5.70726663,24.2206957 C5.72761104,24.2081739 5.7529755,24.176087 5.77279148,24.138 C5.7854737,24.1184348 5.79815593,24.0993913 5.8116308,24.0803478 L5.80502547,24.138 Z M5.71387196,24.9166957 C5.71387196,24.9417391 5.70726663,24.9738261 5.68824329,24.9738261 C5.67556107,24.9798261 5.65627351,24.9678261 5.65627351,24.9547826 C5.63672174,24.903913 5.70726663,24.9101739 5.71387196,24.9166957 Z M5.65019661,25.2806087 C5.67556107,25.1587826 5.72047729,25.044 5.7529755,24.9996522 C5.74082169,24.9485217 5.84386479,24.776087 5.88878102,24.7377391 L5.89512213,24.744 C5.908597,24.9485217 5.7529755,25.0823478 5.72047729,25.2673043 C5.72047729,25.2738261 5.72047729,25.2738261 5.72047729,25.2806087 C5.70145395,25.3891304 5.65019661,25.503913 5.68824329,25.6126957 C5.70145395,25.6374783 5.7529755,25.6374783 5.7854737,25.5993913 C5.82431303,25.6567826 5.80502547,25.74 5.8177077,25.803913 L5.8116308,25.8104348 C5.77279148,25.8166957 5.77279148,25.6888696 5.75931661,25.676087 C5.74663438,25.676087 5.74082169,25.701913 5.70145395,25.6695652 C5.61796262,25.5933913 5.61796262,25.4272174 5.65019661,25.2806087 Z M5.75931661,25.2806087 C5.75931661,25.2806087 5.76565772,25.2292174 5.77913259,25.1650435 L5.84386479,25.0252174 C5.94030257,25.0377391 5.8116308,25.2482609 5.79234324,25.2806087 C5.77913259,25.2993913 5.76565772,25.3121739 5.75931661,25.3121739 C5.7529755,25.3121739 5.7529755,25.2993913 5.75931661,25.2806087 Z M5.8116308,25.3252174 C5.8177077,25.3121739 5.83118257,25.2928696 5.83778789,25.2806087 C5.84994169,25.2673043 5.85733966,25.2550435 5.87609879,25.242 C5.86949346,25.2550435 5.86949346,25.2673043 5.86949346,25.2806087 C5.86341656,25.3252174 5.84994169,25.3635652 5.84386479,25.4144348 C5.82431303,25.4402609 5.79234324,25.3635652 5.8116308,25.3252174 Z M6.18628494,24.3482609 L6.19262605,24.3482609 L6.76174102,24.5783478 L6.9493323,24.6487826 C6.95620184,24.6487826 6.96254295,24.6610435 6.95620184,24.674087 L6.76174102,24.9868696 L6.52923351,25.3635652 C6.52923351,25.3698261 6.52923351,25.3698261 6.51602286,25.3635652 C6.35511709,25.1394783 6.24441182,24.8911304 6.20557249,24.6294783 C6.19262605,24.54 6.18628494,24.4442609 6.18628494,24.3482609 Z M6.44468533,22.74 C6.44468533,22.7266957 6.45155487,22.713913 6.45789598,22.7013913 C6.49699952,22.644 6.58075506,22.5996522 6.56807283,22.6627826 C6.56146751,22.6763478 6.54799264,22.6886087 6.52923351,22.6951304 C6.49699952,22.7206957 6.45789598,22.74 6.44468533,22.74 Z M7.27933443,22.2033913 C7.25978266,22.248 7.17549869,22.3252174 7.15647535,22.3309565 C7.08487361,22.3951304 6.9493323,22.4778261 6.83968387,22.5417391 C6.75513569,22.5866087 6.67719283,22.6246957 6.6584337,22.6309565 C6.64522305,22.6374783 6.57414973,22.6121739 6.68406237,22.5487826 C6.6906677,22.5417391 6.69727303,22.5417391 6.71101211,22.5354783 C6.78102857,22.5036522 6.93665007,22.4076522 7.05924494,22.3309565 C7.13031826,22.2928696 7.18870935,22.2542609 7.22754867,22.2354783 C7.22754867,22.2354783 7.22754867,22.2224348 7.22067913,22.2224348 C7.16915758,22.242 7.08487361,22.2803478 6.99451274,22.3309565 C6.87746634,22.3886087 6.74905879,22.4653043 6.63254082,22.5354783 C6.52923351,22.5996522 6.44468533,22.6567826 6.39316378,22.6951304 C6.38682266,22.7013913 6.38021734,22.7076522 6.37387622,22.7076522 C6.36753511,22.7206957 6.34164223,22.7266957 6.32843157,22.713913 C6.34164223,22.6886087 6.37387622,22.6815652 6.39316378,22.6627826 C6.42539777,22.6246957 6.47744775,22.580087 6.53557462,22.5417391 C6.63888194,22.4590435 6.76808213,22.3818261 6.86504833,22.3309565 C6.92343942,22.2991304 7.25978266,22.146 7.27933443,22.2033913 Z M6.17386692,22.8352174 C6.07003119,22.9246957 5.96038276,23.0713043 5.86949346,23.1996522 C5.86949346,23.1996522 5.7854737,23.3206957 5.72761104,23.4224348 C5.72761104,23.4224348 5.72047729,23.4224348 5.70726663,23.4033913 C5.71387196,23.3843478 5.76565772,23.3011304 5.83778789,23.1933913 C5.96038276,23.0141739 6.13449918,22.7778261 6.16699738,22.7206957 C6.18628494,22.7076522 6.21244203,22.7013913 6.22565269,22.6951304 C6.20557249,22.746 6.16699738,22.7778261 6.13449918,22.8229565 C6.15405094,22.8292174 6.16065627,22.8292174 6.17386692,22.8352174 Z M6.31548513,22.7527826 C6.30940823,22.7587826 6.19262605,22.8417391 6.19262605,22.8229565 C6.19262605,22.7971304 6.35511709,22.6886087 6.31548513,22.7527826 Z M6.26396358,22.6567826 C6.27056891,22.6309565 6.31548513,22.580087 6.36753511,22.5354783 C6.42539777,22.4843478 6.47137085,22.4590435 6.48405308,22.4653043 C6.48405308,22.4843478 6.47137085,22.5036522 6.4320031,22.5354783 C6.40003332,22.5675652 6.35511709,22.5996522 6.3350369,22.6053913 C6.32843157,22.6374783 6.27056891,22.6763478 6.26396358,22.6567826 Z M6.46423709,22.3309565 C6.74905879,22.0565217 7.14379312,21.980087 7.16255225,21.9863478 L7.16255225,21.9991304 C7.06532184,22.1076522 6.96254295,22.2096522 6.83968387,22.2803478 C6.82013211,22.2928696 6.78789811,22.3184348 6.76174102,22.3309565 C6.68406237,22.3818261 6.56146751,22.4334783 6.53557462,22.4457391 C6.52923351,22.4457391 6.5228924,22.4457391 6.5228924,22.4334783 C6.5228924,22.4269565 6.58075506,22.3818261 6.65182838,22.3309565 C6.76174102,22.2542609 7.05290383,22.0823478 7.06532184,22.044 C6.90388765,22.1206957 6.74905879,22.2224348 6.60030683,22.3309565 C6.56807283,22.3565217 6.52923351,22.3818261 6.49699952,22.4076522 C6.49699952,22.4011304 6.49039419,22.3951304 6.48405308,22.3886087 C6.46423709,22.3886087 6.38682266,22.4715652 6.3350369,22.5354783 C6.31548513,22.5605217 6.29619758,22.580087 6.28325114,22.5926087 C6.28325114,22.5735652 6.29619758,22.5545217 6.30940823,22.5354783 C6.30940823,22.5289565 6.36753511,22.4076522 6.46423709,22.3309565 Z M5.94690789,22.5354783 C6.03145608,22.4269565 6.1086063,22.3633043 6.16065627,22.3309565 C6.16065627,22.3309565 6.20557249,22.3053913 6.23172959,22.2991304 C6.23172959,22.3053913 6.23172959,22.3184348 6.23172959,22.3309565 C6.22565269,22.3951304 6.20557249,22.4653043 6.17386692,22.5354783 C6.07663651,22.7778261 5.88270412,23.0590435 5.76565772,23.1996522 C5.74663438,23.2252174 5.72761104,23.244 5.71387196,23.2565217 C5.71387196,23.2377391 5.72047729,23.2184348 5.72761104,23.1996522 C5.77279148,23.0402609 5.95377743,22.7266957 6.08297763,22.5354783 C6.10252939,22.5036522 6.12868649,22.4715652 6.1471814,22.4457391 C6.17386692,22.4011304 6.21878315,22.3505217 6.19262605,22.344 C6.16699738,22.3505217 6.14136872,22.3886087 6.12868649,22.4144348 C6.10252939,22.4457391 6.06316165,22.4908696 6.03145608,22.5354783 C5.90199167,22.7332174 5.74663438,23.0462609 5.68216639,23.1933913 C5.66895574,23.2252174 5.66287884,23.2505217 5.65627351,23.2630435 C5.63672174,23.2886087 5.63011642,23.313913 5.61109308,23.3332174 C5.62351109,23.2886087 5.63672174,23.2377391 5.65019661,23.1933913 C5.74082169,22.8798261 5.84994169,22.6695652 5.94690789,22.5354783 Z M5.35242847,24.5650435 C5.2943016,24.5848696 5.26153918,24.4630435 5.26153918,24.4630435 C5.1386801,24.0610435 5.11965676,23.5565217 5.35242847,23.1933913 C5.35876959,23.1863478 5.46894644,22.9382609 5.56564843,22.8482609 C5.57859487,22.8482609 5.57859487,22.8605217 5.58520019,22.8738261 C5.59841085,22.9630435 5.5529662,23.1673043 5.54636087,23.1933913 C5.52046799,23.313913 5.39073937,23.8189565 5.35242847,23.94 C5.33974625,23.9971304 5.32653559,24.0487826 5.31993027,24.105913 C5.2943016,24.0803478 5.31993027,24.042 5.31993027,24.009913 C5.3003785,23.8374783 5.44913046,23.2823478 5.47528755,23.1933913 C5.50778576,23.115913 5.53315022,23.0402609 5.54636087,22.9502609 L5.5268091,22.9693043 C5.50778576,23.0462609 5.47528755,23.1224348 5.44913046,23.1996522 C5.35876959,23.4545217 5.26153918,23.7161739 5.27474983,24.009913 C5.23617472,24.1630435 5.24251584,24.3354783 5.2943016,24.476087 C5.41716068,24.5908696 5.3651107,24.4056522 5.38492668,24.342 C5.39073937,24.2911304 5.43644823,24.2462609 5.423766,24.1886087 C5.43010712,24.105913 5.44913046,24.0354783 5.48796978,23.9647826 C5.47528755,23.9590435 5.46894644,23.9527826 5.46260533,23.94 C5.46260533,23.9269565 5.46260533,23.9076522 5.46894644,23.8891304 C5.5268091,23.8567826 5.5529662,23.6778261 5.59127709,23.6778261 C5.59127709,23.6587826 5.60448775,23.6394783 5.59127709,23.6206957 C5.57251797,23.6269565 5.54636087,23.6394783 5.53975554,23.607913 C5.55930731,23.5377391 5.54636087,23.4545217 5.61109308,23.4096522 C5.61109308,23.4096522 5.61109308,23.3718261 5.70145395,23.2693043 C5.70145395,23.3206957 5.55930731,23.4863478 5.58520019,23.5638261 C5.59127709,23.5758261 5.60448775,23.570087 5.61796262,23.570087 C5.64359128,23.5565217 5.64359128,23.4996522 5.68216639,23.5053913 C5.68216639,23.544 5.59841085,23.5823478 5.66895574,23.607913 C5.77913259,23.544 5.80502547,23.4357391 5.80502547,23.4357391 C5.83118257,23.3272174 5.88270412,23.2630435 5.93396145,23.1933913 C6.07003119,22.976087 6.22565269,22.8605217 6.34164223,22.7908696 C6.36092978,22.7715652 6.38682266,22.7778261 6.38682266,22.8036522 C6.38682266,22.815913 6.36753511,22.8738261 6.34164223,22.8352174 C6.25788668,22.8991304 6.1086063,23.0971304 6.03779719,23.1933913 C6.03779719,23.1933913 5.99869366,23.2121739 5.79815593,23.5377391 C5.76565772,23.5886087 5.72047729,23.6457391 5.66287884,23.6653043 C5.65627351,23.6587826 5.64359128,23.6457391 5.63672174,23.6587826 C5.63011642,23.6718261 5.53975554,23.9076522 5.47528755,24.138 C5.44278935,24.2522609 5.41716068,24.3675652 5.41029114,24.4502609 C5.41029114,24.476087 5.40368581,24.5011304 5.423766,24.5204348 C5.49483932,24.476087 5.50778576,24.3996522 5.54636087,24.3354783 C5.5529662,24.3294783 5.56564843,24.3354783 5.56564843,24.342 C5.53315022,24.411913 5.5268091,24.5650435 5.423766,24.5525217 C5.423766,24.5650435 5.41716068,24.5908696 5.41716068,24.6294783 C5.41716068,24.6996522 5.423766,24.7888696 5.46894644,24.8527826 C5.48162867,24.8655652 5.53975554,25.1530435 5.61109308,25.2292174 C5.62351109,25.2482609 5.61796262,25.2613043 5.61109308,25.2673043 C5.61109308,25.2673043 5.60448775,25.2806087 5.59841085,25.2871304 C5.58520019,25.2738261 5.57859487,25.2673043 5.57251797,25.2550435 C5.53315022,25.2033913 5.50778576,25.1394783 5.48162867,25.0758261 C5.48162867,25.0570435 5.50118044,25.0505217 5.49483932,25.0377391 C5.46894644,25.0184348 5.44913046,25.0056522 5.44278935,24.9868696 C5.43644823,24.9613043 5.48796978,24.9678261 5.47528755,24.9417391 C5.45573579,24.9101739 5.39073937,24.9417391 5.39760891,24.8973913 C5.40368581,24.8016522 5.37858557,24.7184348 5.35876959,24.6294783 C5.35876959,24.6104348 5.35242847,24.5848696 5.35242847,24.5650435 Z M5.423766,23.94 C5.41716068,23.9971304 5.43010712,24.0610435 5.39760891,24.1184348 C5.37171603,24.1630435 5.40368581,24.2269565 5.35876959,24.2653043 C5.3651107,24.176087 5.37858557,24.0354783 5.39760891,23.94 C5.39760891,23.94 5.41029114,23.8891304 5.50778576,23.6141739 C5.5529662,23.6843478 5.48162867,23.8567826 5.44913046,23.8698261 C5.43644823,23.8891304 5.43010712,23.9144348 5.423766,23.94 Z M5.48162867,25.1848696 C5.49483932,25.1911304 5.5268091,25.2292174 5.5529662,25.2806087 C5.56564843,25.305913 5.57859487,25.338 5.59127709,25.3635652 L5.58520019,25.4525217 L5.57251797,25.4525217 C5.5529662,25.3951304 5.53315022,25.338 5.51412688,25.2806087 C5.50778576,25.2482609 5.49483932,25.2166957 5.48162867,25.1848696 Z M6.38021734,26.372087 C6.35511709,26.3590435 6.34164223,26.3465217 6.30940823,26.3269565 C6.32209046,26.301913 6.30280291,26.2893913 6.29012068,26.2893913 C6.28325114,26.3141739 6.25788668,26.3269565 6.23780649,26.334 C6.22565269,26.334 6.19923138,26.334 6.19262605,26.3206957 C6.21244203,26.3206957 6.23172959,26.3141739 6.23780649,26.2953913 C6.23780649,26.276087 6.23780649,26.2567826 6.22565269,26.2507826 C6.19923138,26.2567826 6.21244203,26.301913 6.17386692,26.3081739 C6.06316165,26.2635652 5.91520232,26.0337391 5.89512213,25.9948696 C5.86341656,25.9630435 5.83778789,25.9888696 5.80502547,25.976087 C5.77913259,25.9698261 5.56564843,25.7462609 5.51412688,25.6888696 C5.08055322,25.2362609 5.07474053,25.0314783 5.06813521,24.8204348 C5.06813521,24.7565217 5.05518877,24.6933913 5.05518877,24.6294783 C5.05518877,24.6104348 5.05518877,24.5908696 5.06126567,24.5713043 C5.08055322,24.5332174 5.1386801,24.6104348 5.15849608,24.6294783 C5.26153918,24.7505217 5.39073937,25.0570435 5.43644823,25.2101739 C5.44278935,25.2292174 5.44913046,25.2550435 5.45573579,25.2738261 C5.46894644,25.3314783 5.48162867,25.3823478 5.49483932,25.4337391 C5.46260533,25.4144348 5.44913046,25.3698261 5.43010712,25.338 C5.423766,25.3184348 5.41029114,25.3314783 5.39760891,25.3314783 C5.38492668,25.3121739 5.37171603,25.2928696 5.3651107,25.2738261 C5.2559907,25.0823478 5.18386053,24.878087 5.13233898,24.6675652 L5.11357985,24.6550435 C5.08742276,24.6550435 5.12626208,24.8266957 5.20367651,25.011913 C5.18386053,25.011913 5.17144252,24.9868696 5.15162654,24.9996522 C5.14554964,25.0698261 5.30724804,25.2101739 5.32653559,25.2806087 C5.32653559,25.2871304 5.32653559,25.2928696 5.32653559,25.2993913 C5.423766,25.4272174 5.49483932,25.5678261 5.57251797,25.701913 C5.59841085,25.7462609 5.65019661,25.7713043 5.66895574,25.8166957 C5.68216639,25.8294783 5.70726663,25.8232174 5.71387196,25.8487826 C5.74082169,25.8868696 5.7529755,25.9249565 5.79815593,25.9437391 C5.83118257,25.9510435 5.83778789,25.9570435 5.84386479,25.9312174 C5.84386479,25.9056522 5.82431303,25.8868696 5.82431303,25.8547826 C5.83778789,25.8868696 5.86341656,25.8993913 5.88878102,25.9126957 L5.94690789,25.8933913 C5.96672387,25.9249565 5.93396145,25.9570435 5.93396145,25.9888696 C5.98627564,26.0527826 6.11521162,26.238 6.14136872,26.205913 C6.18020804,26.1550435 6.20557249,26.2635652 6.23172959,26.205913 C6.24441182,26.180087 6.22565269,26.1550435 6.20557249,26.1487826 C6.12155274,26.174087 6.12155274,26.0658261 6.08297763,26.0269565 C6.03779719,25.9437391 6.03145608,25.8417391 5.96038276,25.7713043 C5.88878102,25.676087 5.84386479,25.574087 5.75931661,25.4973913 C5.74663438,25.4848696 5.75931661,25.4525217 5.77913259,25.4465217 C5.82431303,25.4525217 5.80502547,25.5354783 5.85733966,25.5354783 C5.88270412,25.5354783 5.86949346,25.4653043 5.90199167,25.4525217 C5.88878102,25.5425217 5.97280077,25.74 6.09565985,25.8104348 C6.1086063,25.8232174 6.12868649,25.8417391 6.12155274,25.8613043 C6.11521162,25.874087 6.10252939,25.8547826 6.09565985,25.8613043 C6.08297763,25.8933913 6.12868649,25.8993913 6.12868649,25.9189565 C6.12868649,26.0590435 6.50941753,26.4673043 6.80058034,26.5189565 C6.80692145,26.5314783 6.82013211,26.538 6.83307855,26.5442609 C6.858443,26.5573043 6.90388765,26.5573043 6.89120542,26.6081739 C6.90388765,26.6146957 6.92343942,26.6272174 6.92343942,26.6465217 C6.88512852,26.6595652 6.858443,26.6595652 6.83307855,26.6527826 C6.79423923,26.6527826 6.76174102,26.6402609 6.74245346,26.6272174 C6.70387835,26.6146957 6.41271554,26.3778261 6.38021734,26.372087 Z M6.5228924,26.5828696 C6.54191574,26.5888696 6.58075506,26.6081739 6.60664794,26.6272174 C6.63254082,26.6527826 6.6584337,26.6723478 6.65182838,26.6786087 C6.6584337,26.6908696 6.5228924,26.7232174 6.47744775,26.7292174 C6.49039419,26.6973913 6.50307642,26.6658261 6.50941753,26.6272174 C6.51602286,26.6146957 6.51602286,26.6016522 6.5228924,26.5828696 Z M5.49483932,25.9570435 C5.50118044,25.9570435 5.51412688,25.9630435 5.5268091,25.9698261 C5.55930731,25.9826087 5.58520019,26.001913 5.61109308,26.0269565 C5.60448775,26.0467826 5.57859487,26.007913 5.55930731,26.0269565 C5.54636087,26.0402609 5.63672174,26.0846087 5.62351109,26.1166957 C5.61796262,26.1229565 5.57251797,26.0658261 5.56564843,26.0846087 C5.54636087,26.1166957 5.5529662,26.1362609 5.53315022,26.1675652 C5.53315022,26.1675652 5.5268091,26.1675652 5.52046799,26.1675652 C5.49483932,26.1675652 5.46894644,26.1675652 5.43010712,26.1550435 C5.43010712,26.0908696 5.46260533,26.007913 5.49483932,25.9570435 Z M5.37858557,26.1610435 C5.41029114,26.1866087 5.46260533,26.2121739 5.5268091,26.2317391 C5.56564843,26.238 5.61109308,26.2507826 5.66287884,26.2507826 C5.65019661,26.2893913 5.60448775,26.3976522 5.59127709,26.4166957 C5.56564843,26.4101739 5.53975554,26.3976522 5.52046799,26.3848696 C5.50118044,26.3653043 5.48162867,26.3530435 5.45573579,26.334 C5.44278935,26.3269565 5.48162867,26.301913 5.45573579,26.2831304 C5.45573579,26.276087 5.46894644,26.2698261 5.46894644,26.2698261 C5.51412688,26.2893913 5.51412688,26.2567826 5.50118044,26.2507826 C5.423766,26.2121739 5.35242847,26.180087 5.27474983,26.1362609 C5.30724804,26.142 5.34529472,26.1550435 5.37858557,26.1610435 Z M6.76808213,27.6229565 C6.76174102,27.6229565 6.76174102,27.6365217 6.75513569,27.6422609 C6.73584814,27.6806087 6.68406237,27.7445217 6.63888194,27.7573043 C6.5937015,27.7635652 6.56807283,27.7252174 6.56146751,27.7573043 C6.55459797,27.7953913 6.60664794,27.7698261 6.6198586,27.801913 C6.64522305,27.872087 6.58075506,27.9104348 6.56146751,27.9166957 C6.57414973,27.776087 6.43887264,27.7635652 6.39316378,27.7573043 C6.39316378,27.7573043 6.27056891,27.7953913 6.28325114,27.7507826 C6.28325114,27.705913 6.39316378,27.6806087 6.46423709,27.6422609 C6.47137085,27.6365217 6.47744775,27.6365217 6.48405308,27.6297391 C6.5228924,27.5272174 6.63888194,27.4953913 6.72290169,27.4573043 C6.75513569,27.4698261 6.81326257,27.5081739 6.87746634,27.4192174 C6.85289453,27.3868696 6.89120542,27.3743478 6.90388765,27.3743478 C6.92343942,27.3743478 6.89701811,27.3933913 6.90388765,27.405913 C6.94272697,27.405913 6.95620184,27.368087 6.98790741,27.368087 C7.00772339,27.3613043 7.00138228,27.380087 7.00772339,27.3868696 C7.02040562,27.3996522 7.03308785,27.380087 7.04656271,27.3868696 C7.06532184,27.3933913 6.88512852,27.5786087 6.76808213,27.6229565 Z M7.5697046,27.1510435 C7.38898286,27.1698261 6.38682266,27.3357391 6.29012068,27.3490435 C6.17386692,27.368087 6.07003119,27.3550435 6.0055632,27.3229565 C5.92814877,27.2911304 5.10010499,26.8377391 5.01634944,26.6786087 C5.00287458,26.6527826 4.99019235,26.6146957 4.99019235,26.6146957 L5.00287458,26.6402609 L5.05518877,26.6786087 L5.06813521,26.6595652 C5.02903167,26.6402609 5.0417139,26.6146957 5.07474053,26.5763478 L5.12626208,26.5121739 C5.1386801,26.5189565 5.13233898,26.5502609 5.13233898,26.5828696 L5.11357985,26.7169565 L5.18386053,26.7613043 L5.1973354,26.7425217 C5.18386053,26.736 5.18386053,26.7292174 5.18386053,26.7104348 L5.1973354,26.538 C5.23617472,26.5502609 5.27474983,26.538 5.30724804,26.4931304 C5.31993027,26.4806087 5.32653559,26.4615652 5.32653559,26.4485217 C5.33287671,26.4297391 5.33287671,26.4101739 5.32653559,26.3976522 C5.31306073,26.3778261 5.28769627,26.3590435 5.27474983,26.3465217 L5.21662295,26.3081739 L5.15849608,26.2698261 L5.14554964,26.2893913 C5.17804785,26.3081739 5.1651014,26.334 5.1386801,26.372087 L5.08742276,26.4485217 L5.02269056,26.538 C5.00974412,26.5573043 4.99679768,26.5695652 4.99019235,26.5828696 C4.99019235,26.5828696 4.99019235,26.5888696 4.99019235,26.5953913 C4.98411545,26.5695652 4.98411545,26.5502609 4.99679768,26.538 C5.06126567,26.4232174 5.08742276,26.2893913 5.11965676,26.1675652 C5.13233898,26.1362609 5.15849608,26.142 5.17144252,26.1362609 C5.15849608,26.1487826 5.15849608,26.1675652 5.1651014,26.1866087 C5.17804785,26.205913 5.33287671,26.3081739 5.52046799,26.4166957 C5.82431303,26.6016522 6.20557249,26.8186957 6.21878315,26.8066957 C6.27056891,26.8066957 6.54799264,26.7550435 6.83307855,26.7104348 C7.11737182,26.6658261 7.42095264,26.6212174 7.4928186,26.6272174 C7.51818305,26.6272174 7.54434015,26.6658261 7.5697046,26.7169565 C7.61488504,26.8252174 7.65398857,26.9911304 7.66693501,27.0550435 C7.65398857,27.1635652 7.5697046,27.1510435 7.5697046,27.1510435 Z M5.2559907,26.4485217 C5.2559907,26.4485217 5.24938538,26.4553043 5.24938538,26.4615652 C5.21028184,26.5121739 5.18386053,26.5189565 5.15162654,26.4931304 L5.1386801,26.4871304 L5.1651014,26.4485217 L5.19046586,26.4041739 C5.1973354,26.3908696 5.22296407,26.3590435 5.22296407,26.3530435 C5.22956939,26.3530435 5.24251584,26.3590435 5.24938538,26.3590435 C5.27474983,26.3778261 5.27474983,26.4101739 5.2559907,26.4485217 Z M7.90023516,27.1126957 C7.8545263,27.0550435 7.93907448,26.9081739 7.87381385,26.9081739 C7.8545263,26.9149565 7.87381385,26.94 7.87381385,26.9595652 C7.84765676,27.0232174 7.84765676,27.099913 7.79032252,27.144 C7.77658344,27.144 7.77658344,27.1317391 7.78292455,27.1186957 C7.80274053,27.0615652 7.8283692,27.0041739 7.82176387,26.94 C7.81568697,26.94 7.79032252,26.9149565 7.79032252,26.9846087 C7.79032252,27.036 7.73800833,27.0738261 7.73166722,27.1246957 C7.73166722,27.144 7.69256368,27.1635652 7.66693501,27.1635652 C7.66693501,27.093913 7.71264387,27.042 7.71264387,26.972087 C7.73800833,26.9337391 7.74434944,26.9911304 7.74434944,26.9911304 C7.75782431,26.972087 7.76469385,26.7425217 7.67406877,26.6973913 C7.66032969,26.7104348 7.73166722,26.8186957 7.69916901,26.901913 L7.67406877,26.901913 C7.65398857,26.7550435 7.60880814,26.6723478 7.5697046,26.6337391 C7.4928186,26.5502609 7.40827041,26.5888696 7.38211332,26.5828696 C7.39558818,26.5573043 7.42782218,26.538 7.45397927,26.5314783 C7.48594906,26.5254783 7.52478838,26.538 7.5697046,26.5573043 C7.6283599,26.5763478 7.68040988,26.6146957 7.70603855,26.6212174 C7.71264387,26.6146957 7.71872077,26.6016522 7.71264387,26.5888696 C7.69916901,26.5828696 7.69256368,26.5695652 7.69916901,26.5573043 C7.79032252,26.5061739 8.02969956,26.8956522 7.98425492,27.0232174 C7.96443893,27.0675652 7.94515138,27.1056522 7.90023516,27.1126957 Z M8.62365056,27.476087 C8.63712542,27.4953913 8.66275409,27.5402609 8.68891119,27.5851304 C8.71453985,27.6297391 8.74677385,27.6746087 8.76632562,27.6806087 C8.78587738,27.6613043 8.72722208,27.6229565 8.77927206,27.6041739 C8.84347584,27.5911304 8.85060959,27.7698261 9.01812068,27.7124348 C9.05722421,27.7573043 9.14732087,27.7377391 9.19937085,27.7507826 C9.19937085,27.7573043 9.19250131,27.776087 9.18589598,27.776087 C9.06990644,27.7635652 8.92749559,27.7698261 8.82392407,27.84 C8.80542915,27.8527826 8.82392407,27.8846087 8.80542915,27.8976522 C8.77927206,27.8658261 8.80542915,27.8277391 8.82392407,27.7953913 C8.83713472,27.7698261 8.90847225,27.7828696 8.86963293,27.7445217 C8.86963293,27.7445217 8.83713472,27.7192174 8.74043274,27.84 C8.72722208,27.8277391 8.72722208,27.7953913 8.70793453,27.7828696 C8.62365056,27.801913 8.59802189,27.6996522 8.52668436,27.6871304 C8.50766102,27.6746087 8.53989501,27.6613043 8.52668436,27.6422609 C8.48810925,27.6164348 8.44900571,27.5973913 8.40461792,27.5851304 C8.27462508,27.5465217 8.37846082,27.4886087 8.33301617,27.4698261 C8.10658557,27.3996522 8.12587312,27.3425217 8.12587312,27.3425217 C8.13908378,27.3041739 8.17131777,27.3550435 8.19086954,27.3297391 C8.18426421,27.3169565 8.16471245,27.3104348 8.17131777,27.2911304 C8.20355177,27.2718261 8.27462508,27.3550435 8.28809995,27.3490435 C8.31346441,27.3297391 8.26801976,27.3041739 8.30078218,27.3041739 C8.3718555,27.2911304 8.54623613,27.4953913 8.59194499,27.5081739 C8.60462722,27.4953913 8.58481123,27.4886087 8.58481123,27.476087 C8.59194499,27.4698261 8.61096833,27.4698261 8.62365056,27.476087 Z M9.89715758,26.1487826 C9.89715758,26.1487826 9.91063245,26.1041739 10.0012575,26.1550435 C10.0073344,26.174087 10.0205451,26.2246957 10.0400969,26.2893913 C10.0400969,26.2893913 10.0850131,26.4357391 10.1436684,26.6337391 C10.1560864,26.6843478 10.1304577,26.7104348 10.1106417,26.7425217 C9.98117734,26.8570435 9.45803545,27.1635652 9.39356746,27.2021739 C9.30928349,27.2590435 9.16713685,27.2911304 9.00517424,27.2976522 C8.59802189,27.3169565 8.05506402,27.2206957 7.97078005,27.1573043 C8.07435157,27.0166957 8.04158915,26.8888696 8.03551225,26.8635652 C7.98425492,26.7868696 7.92559961,26.6527826 7.90604785,26.6337391 L7.91899429,26.6212174 C8.69472387,26.7806087 8.99249201,26.7931304 9.00517424,26.7806087 C9.1156153,26.7743478 9.65223206,26.4357391 9.85858247,26.2893913 C9.93626111,26.238 9.98117734,26.1931304 9.96875932,26.1675652 C9.94894334,26.142 9.92357889,26.1487826 9.89715758,26.1487826 Z M8.61096833,26.6272174 C8.62365056,26.6016522 8.66275409,26.5828696 8.68891119,26.5828696 C8.70106499,26.5828696 8.70793453,26.6016522 8.71453985,26.6272174 C8.71453985,26.6595652 8.71453985,26.6973913 8.70106499,26.7104348 C8.68230586,26.7104348 8.66275409,26.703913 8.64373075,26.6973913 C8.64373075,26.6973913 8.65588455,26.6465217 8.60462722,26.6658261 C8.60462722,26.6527826 8.60462722,26.6402609 8.61096833,26.6272174 Z M8.75972029,26.5061739 C8.76632562,26.4553043 9.00517424,26.4041739 9.03106712,26.3908696 C9.08945821,26.3590435 9.1156153,26.3269565 9.13490286,26.2893913 C9.16713685,26.2317391 9.16026731,26.180087 9.17347797,26.1610435 C9.20597617,26.1166957 9.27678528,26.0527826 9.39356746,26.0269565 C9.40624969,26.0206957 9.46411235,26.001913 9.42500881,26.0715652 C9.39964436,26.1041739 9.39356746,26.1487826 9.38009259,26.1866087 C9.38009259,26.205913 9.40624969,26.2442609 9.43187835,26.2953913 C9.43848368,26.3081739 9.45116591,26.3206957 9.45803545,26.334 C9.477323,26.372087 9.49608213,26.4166957 9.49608213,26.4485217 C9.47098189,26.4806087 9.09553511,26.7169565 9.00517424,26.7292174 C8.93383671,26.7425217 8.86355603,26.7292174 8.77927206,26.7169565 C8.76632562,26.6723478 8.75311496,26.6272174 8.75311496,26.6272174 C8.74677385,26.5828696 8.74677385,26.538 8.75972029,26.5061739 Z M9.8268769,26.1610435 C9.8268769,26.199913 9.57455341,26.2953913 9.57455341,26.2953913 C9.56107855,26.301913 9.57455341,26.3081739 9.56107855,26.3269565 C9.56107855,26.34 9.58089453,26.34 9.58723564,26.3530435 C9.58723564,26.3653043 9.55447322,26.3653043 9.56794809,26.3848696 C9.6004463,26.4101739 9.55447322,26.4297391 9.54205521,26.4232174 C9.52884455,26.4166957 9.49608213,26.3269565 9.4833999,26.3141739 C9.477323,26.3081739 9.47098189,26.2953913 9.47098189,26.2893913 C9.46411235,26.276087 9.46411235,26.2698261 9.477323,26.2635652 C9.52884455,26.2567826 9.58089453,26.2507826 9.63241608,26.2507826 C9.64562673,26.2121739 9.78169646,26.1610435 9.8268769,26.1610435 Z M9.65223206,25.9630435 C9.69027874,26.0337391 9.69714828,26.0973913 9.69714828,26.0973913 C9.69714828,26.1101739 9.69714828,26.1229565 9.69714828,26.1362609 C9.69714828,26.1550435 9.63875719,26.1550435 9.63875719,26.1550435 C9.63875719,26.1362609 9.67099119,26.1229565 9.64562673,26.1101739 C9.62607496,26.1101739 9.6004463,26.142 9.59331254,26.1292174 C9.58089453,26.1101739 9.62607496,26.1041739 9.61339274,26.078087 C9.6065232,26.0658261 9.51616232,26.142 9.50982121,26.1229565 C9.5034801,26.0908696 9.61339274,26.0467826 9.59331254,26.0269565 C9.57455341,26.001913 9.49608213,26.0846087 9.477323,26.0846087 L9.47098189,26.0846087 C9.45803545,26.0715652 9.51616232,25.9826087 9.65223206,25.9630435 Z M9.64562673,25.7848696 C9.61339274,25.8232174 9.56794809,25.8547826 9.56107855,25.9056522 C9.56107855,25.9189565 9.53571409,25.9312174 9.50982121,25.9249565 C9.49000523,25.9249565 9.4833999,25.8933913 9.45803545,25.8993913 C9.43848368,25.9570435 9.37401569,25.938 9.33491215,25.976087 C9.25115661,26.0527826 9.24428707,25.938 9.23821017,25.9510435 C9.18589598,26.007913 9.14097976,26.078087 9.08945821,26.1362609 C9.05722421,26.174087 9.03767245,26.2507826 9.02525443,26.2635652 C9.01812068,26.2698261 8.99909734,26.2893913 8.99909734,26.2893913 C8.99249201,26.3081739 8.9861509,26.3269565 8.9599938,26.3206957 C8.94070625,26.3206957 8.94070625,26.2893913 8.91454915,26.3081739 C8.90186692,26.34 8.88231516,26.3081739 8.86355603,26.3141739 C8.84347584,26.3465217 8.74677385,26.4553043 8.67570053,26.4615652 C8.66275409,26.4673043 8.63712542,26.4673043 8.62365056,26.4485217 C8.59194499,26.4297391 8.54623613,26.5314783 8.51426634,26.538 C8.50766102,26.5442609 8.51426634,26.5502609 8.52060746,26.5502609 L8.55944678,26.5502609 C8.55944678,26.5763478 8.52060746,26.6081739 8.48810925,26.6272174 C8.48810925,26.6272174 8.45587525,26.6465217 8.42337705,26.6595652 C8.42337705,26.6595652 8.32614663,26.6595652 8.2223109,26.6212174 L8.2223109,26.5828696 L8.33301617,26.5189565 C8.3396215,26.5502609 8.35838063,26.5633043 8.38453772,26.5828696 C8.40461792,26.5953913 8.41043061,26.5828696 8.41703593,26.5695652 C8.42337705,26.5254783 8.32033395,26.5121739 8.39721995,26.4615652 C8.44240039,26.4297391 8.44240039,26.4553043 8.51426634,26.4417391 C8.56578789,26.4297391 8.61730944,26.4041739 8.65588455,26.372087 C8.65588455,26.372087 8.71453985,26.3465217 8.81837559,26.1675652 C8.81837559,26.1675652 8.86963293,26.078087 9.27017995,25.3698261 C9.27017995,25.3698261 9.36714615,25.2806087 9.50982121,24.9417391 C9.52276765,24.9166957 9.52884455,24.9678261 9.54839632,24.9613043 C9.58089453,24.9226957 9.53571409,24.8973913 9.51616232,24.8655652 C9.5034801,24.8204348 9.49000523,24.7635652 9.5034801,24.7129565 C9.50982121,24.6996522 9.53571409,24.705913 9.54205521,24.7377391 C9.54839632,24.776087 9.55447322,24.8141739 9.56794809,24.8527826 C9.63241608,24.8527826 9.65830896,24.4886087 9.66465007,24.4184348 C9.66465007,24.411913 9.66465007,24.411913 9.66465007,24.4056522 C9.63241608,24.3613043 9.54205521,24.342 9.54839632,24.3041739 C9.61339274,24.284087 9.51616232,24.1570435 9.50982121,24.2081739 C9.50982121,24.2206957 9.52276765,24.2402609 9.50982121,24.2522609 C9.40624969,24.2590435 9.42500881,24.1570435 9.39964436,24.1312174 C9.38009259,24.105913 9.32857104,24.1312174 9.32196571,24.0868696 C9.32196571,24.0610435 9.31588881,24.0354783 9.28973172,24.0229565 C9.26410305,24.0161739 9.2247353,24.042 9.2247353,23.9778261 C9.2247353,23.9269565 9.34838702,24.042 9.31588881,23.94 C9.27017995,23.844 9.17981908,23.9076522 9.16713685,23.8891304 C9.13490286,23.8374783 9.04374935,23.6973913 9.04374935,23.634 C9.05061889,23.601913 9.1013478,23.6718261 9.1013478,23.6269565 C9.1013478,23.5886087 9.05061889,23.5377391 9.03767245,23.544 C8.97954557,23.570087 8.9599938,23.5053913 8.9599938,23.4803478 C8.95365269,23.4675652 8.95365269,23.442 8.9599938,23.4096522 C8.94731157,23.3843478 8.90847225,23.3843478 8.90186692,23.3522609 C8.89579002,23.3394783 8.88231516,23.313913 8.90186692,23.2948696 C9.04374935,23.2505217 8.90186692,23.1933913 8.93383671,23.1545217 C8.9599938,23.1292174 9.02525443,23.174087 9.06330111,23.115913 C9.09553511,23.0846087 9.1013478,23.0971304 9.1156153,23.115913 C9.16026731,23.1545217 9.09553511,23.244 9.17347797,23.244 C9.19250131,23.244 9.21945104,23.1933913 9.25115661,23.2252174 C9.29633705,23.2693043 9.28973172,23.307913 9.30928349,23.3718261 C9.34125327,23.4605217 9.28312639,23.4803478 9.27678528,23.4863478 C9.27017995,23.4926087 9.26410305,23.5053913 9.26410305,23.5184348 C9.25749772,23.5377391 9.25749772,23.5638261 9.27678528,23.5823478 C9.30241395,23.570087 9.32857104,23.5502609 9.34125327,23.5249565 C9.34838702,23.5121739 9.36106925,23.5121739 9.37401569,23.5184348 C9.38696213,23.5377391 9.37401569,23.5758261 9.38696213,23.5948696 C9.49000523,23.7033913 9.38696213,23.7670435 9.38696213,23.7670435 C9.37401569,23.7354783 9.38696213,23.6973913 9.35419971,23.6778261 C9.33491215,23.7224348 9.37401569,23.7871304 9.34838702,23.8309565 C9.34838702,23.8309565 9.33491215,23.7545217 9.16026731,23.5249565 C9.16026731,23.4863478 9.14732087,23.4224348 9.15366199,23.3843478 C9.14732087,23.3843478 9.14732087,23.3718261 9.13490286,23.3783478 C9.1216922,23.3783478 9.12750489,23.3973913 9.1156153,23.3908696 C9.08285288,23.3272174 9.06990644,23.2565217 9.03106712,23.1933913 L9.01812068,23.2121739 C9.04374935,23.3011304 9.08285288,23.3843478 9.10874576,23.4738261 L9.09553511,23.4738261 L9.03106712,23.4033913 C9.02525443,23.4033913 9.01812068,23.4033913 9.01812068,23.4096522 C9.02525443,23.4605217 9.08945821,23.5053913 9.12750489,23.544 L9.27017995,23.7482609 C9.24428707,23.7354783 9.21231729,23.7161739 9.17981908,23.7161739 C9.17347797,23.7224348 9.17347797,23.7289565 9.17981908,23.7354783 C9.28312639,23.7926087 9.37401569,23.9076522 9.39964436,24.0161739 C9.38696213,24.0284348 9.36714615,23.9971304 9.36106925,24.0229565 C9.36714615,24.0487826 9.43187835,24.0993913 9.477323,24.1121739 L9.477323,24.0803478 C9.43848368,23.9908696 9.37401569,23.9076522 9.38696213,23.7991304 C9.39964436,23.8189565 9.42500881,23.9209565 9.46411235,23.811913 C9.49608213,23.805913 9.4833999,23.8823478 9.49608213,23.8953913 C9.53571409,23.9332174 9.55447322,23.9462609 9.53571409,24.0036522 C9.52276765,24.0284348 9.50982121,24.042 9.51616232,24.105913 C9.53571409,24.144 9.61339274,24.1312174 9.58723564,24.1886087 C9.58089453,24.2081739 9.56794809,24.2337391 9.57455341,24.2522609 C9.6065232,24.2653043 9.61946964,24.2973913 9.64562673,24.3161739 C9.67099119,24.284087 9.63241608,24.2462609 9.63241608,24.2141739 C9.65223206,24.1698261 9.62607496,24.1246957 9.61339274,24.0803478 C9.58089453,24.0673043 9.6065232,24.0354783 9.6065232,24.009913 C9.6065232,24.0036522 9.61339274,24.009913 9.61339274,24.009913 C9.6004463,24.0673043 9.70375361,24.0738261 9.65223206,24.1312174 C9.67099119,24.1951304 9.71009472,24.2462609 9.69714828,24.3161739 C9.71643584,24.342 9.72938228,24.3101739 9.74232872,24.2973913 C9.7682216,24.2653043 9.79411448,24.2141739 9.77482692,24.176087 C9.75553937,24.176087 9.74232872,24.1505217 9.72938228,24.1505217 C9.7359876,24.105913 9.69714828,24.0868696 9.69714828,24.0487826 C9.71009472,24.042 9.72251274,24.042 9.72938228,24.0284348 C9.7359876,23.9527826 9.63875719,23.94 9.62607496,23.8698261 C9.62607496,23.8189565 9.56794809,23.7991304 9.55447322,23.7545217 C9.58089453,23.7354783 9.65223206,23.7613043 9.62607496,23.7033913 C9.56107855,23.6394783 9.4833999,23.5758261 9.45803545,23.4863478 C9.45803545,23.4803478 9.43848368,23.4357391 9.45803545,23.4224348 C9.477323,23.4224348 9.49608213,23.4161739 9.49608213,23.3908696 C9.49608213,23.3394783 9.44535322,23.307913 9.40624969,23.2823478 C9.36714615,23.2309565 9.36714615,23.174087 9.34125327,23.1224348 C9.36714615,23.0655652 9.38696213,23.0011304 9.41311923,22.9382609 C9.40624969,22.9246957 9.34125327,22.8352174 9.4833999,22.8798261 C9.49608213,22.8863478 9.54839632,22.8605217 9.55447322,22.8292174 C9.59331254,22.8482609 9.58723564,23.0011304 9.62607496,22.9951304 C9.65223206,22.9888696 9.64562673,22.944 9.68446605,22.9693043 C9.68446605,22.9693043 9.68446605,23.0778261 9.75553937,23.1482609 C9.75553937,23.1933913 9.7359876,23.244 9.76135206,23.2886087 C9.76135206,23.2886087 9.78803758,23.3206957 9.81974315,23.2763478 C9.81366625,23.4605217 9.8651878,23.4803478 9.87205734,23.4863478 C9.84590024,23.5314783 9.7359876,23.7093913 9.85858247,23.7224348 C9.88473956,23.7224348 9.85858247,23.6394783 9.89081646,23.6141739 C9.90402712,23.601913 9.94894334,23.6394783 9.95581288,23.7289565 C9.96241821,23.7991304 9.81974315,23.8823478 9.91063245,23.9715652 C9.91644513,23.9590435 9.92357889,23.9527826 9.92965579,23.94 C9.94894334,23.9590435 9.96241821,24.0036522 9.95581288,24.0284348 C9.89081646,24.0547826 9.90402712,24.1312174 9.90402712,24.1823478 C9.88473956,24.2337391 9.80019138,24.2402609 9.81366625,24.3041739 C9.81974315,24.3675652 9.7359876,24.3738261 9.71643584,24.4184348 C9.71643584,24.4252174 9.58723564,25.1462609 9.49000523,25.2229565 C9.45803545,25.2482609 9.36714615,25.4337391 9.28312639,25.5229565 C9.26410305,25.5425217 9.23821017,25.5229565 9.21945104,25.5354783 C9.2247353,25.5547826 9.2247353,25.574087 9.2247353,25.5863478 C9.21231729,25.6181739 9.14732087,25.74 9.10874576,25.7527826 C9.09553511,25.7848696 9.07677598,25.8166957 9.05722421,25.8487826 C9.03767245,25.8868696 8.92115448,26.0269565 8.92115448,26.1101739 C8.91454915,26.2698261 8.94070625,26.2567826 8.94070625,26.2567826 C8.97954557,26.238 8.97267603,26.180087 8.97954557,26.142 C9.05722421,26.0590435 9.12750489,25.9630435 9.21231729,25.8933913 C9.21945104,25.8808696 9.23134063,25.8613043 9.23821017,25.8487826 C9.28312639,25.8166957 9.28973172,25.6635652 9.30241395,25.6252174 C9.30928349,25.6374783 9.32857104,25.6252174 9.34838702,25.6252174 C9.34125327,25.6888696 9.38009259,25.7527826 9.34838702,25.8104348 C9.32857104,25.803913 9.30928349,25.803913 9.29633705,25.8166957 C9.30241395,25.8294783 9.32857104,25.8354783 9.31588881,25.8547826 C9.30241395,25.874087 9.28312639,25.8933913 9.27678528,25.9126957 C9.28973172,25.9510435 9.30241395,25.9056522 9.32196571,25.9056522 C9.36106925,25.9249565 9.38009259,25.8675652 9.41919613,25.8993913 C9.45803545,25.8417391 9.53571409,25.803913 9.54839632,25.74 C9.59331254,25.701913 9.59331254,25.644 9.61946964,25.5993913 C9.62607496,25.5993913 9.62607496,25.5933913 9.63241608,25.5863478 C9.67759651,25.5485217 9.70375361,25.4908696 9.7682216,25.4783478 C9.77482692,25.472087 9.78169646,25.4593043 9.78169646,25.4525217 C9.74893404,25.4272174 9.72251274,25.4783478 9.69027874,25.4783478 C9.71643584,25.3891304 9.77482692,25.305913 9.78169646,25.2101739 C9.81366625,25.1394783 9.87205734,25.1016522 9.94286644,25.0758261 C9.95581288,25.0630435 9.96241821,25.0505217 9.95581288,25.0252174 C9.92357889,25.0630435 9.87839845,25.0630435 9.83929492,25.0891304 C9.8268769,24.9738261 10.046438,24.776087 10.046438,24.6996522 C10.0400969,24.6933913 10.0334915,24.6933913 10.026622,24.6933913 C9.98117734,24.7314783 9.98117734,24.8141739 9.92357889,24.8266957 C9.96241821,24.5848696 10.0012575,24.4886087 10.0012575,24.4886087 C10.0012575,24.4826087 9.9946522,24.476087 9.98778266,24.4693043 C9.94286644,24.4502609 9.90402712,24.7948696 9.89081646,24.7888696 C9.83321801,24.7635652 9.87839845,24.6675652 9.83929492,24.6221739 C9.8268769,24.6221739 9.81974315,24.6354783 9.81974315,24.6417391 C9.81974315,24.6417391 9.79411448,24.705913 9.84590024,24.8141739 C9.8268769,24.9292174 9.79411448,25.0570435 9.7682216,25.1650435 L9.75553937,25.178087 C9.74893404,25.1394783 9.74232872,25.0951304 9.72251274,25.0570435 C9.71643584,25.0184348 9.72938228,24.9798261 9.71009472,24.9547826 C9.65830896,24.9996522 9.69714828,25.0758261 9.71009472,25.1269565 C9.71643584,25.2292174 9.70375361,25.3184348 9.66465007,25.4016522 C9.65223206,25.419913 9.67099119,25.4402609 9.66465007,25.4593043 C9.64562673,25.4973913 9.62607496,25.5425217 9.6004463,25.574087 C9.52276765,25.503913 9.6065232,25.3252174 9.6065232,25.305913 C9.6065232,25.2550435 9.56107855,25.2738261 9.55447322,25.2292174 C9.54839632,25.1973913 9.6065232,25.1848696 9.58723564,25.1462609 C9.59331254,25.1206957 9.63875719,25.0951304 9.62607496,25.0630435 C9.59331254,24.9678261 9.69714828,24.8655652 9.69714828,24.7828696 C9.69027874,24.7505217 9.74232872,24.8016522 9.74893404,24.7635652 C9.75553937,24.7129565 9.72251274,24.6487826 9.76135206,24.6104348 C9.77482692,24.5650435 9.74232872,24.5204348 9.77482692,24.4826087 C9.79411448,24.4567826 9.8268769,24.4502609 9.84590024,24.4693043 C9.8651878,24.4951304 9.84590024,24.5525217 9.88473956,24.54 C9.91063245,24.5204348 9.89715758,24.3996522 9.90402712,24.3933913 C9.90402712,24.3868696 9.92965579,24.3613043 9.97510044,24.3613043 C9.98778266,24.3613043 9.9946522,24.411913 10.0400969,24.4184348 C10.0850131,24.4442609 10.1500095,24.4502609 10.1500095,24.4693043 C10.1560864,24.5144348 10.0657255,24.5465217 10.1172471,24.5848696 C10.1238524,24.5908696 10.1759024,24.5783478 10.1759024,24.6104348 C10.1822435,24.6550435 10.1238524,24.680087 10.1365346,24.7314783 C10.1436684,24.8016522 10.0657255,24.8141739 10.0400969,24.8655652 C10.0334915,24.8846087 10.0593844,24.8973913 10.0789362,24.8973913 C10.0918826,24.903913 10.1045648,24.8911304 10.1106417,24.9101739 C10.1172471,24.9417391 10.1045648,24.9738261 10.0918826,24.9996522 C10.0723308,25.011913 10.0334915,25.0184348 10.0334915,25.0377391 C10.026622,25.1144348 9.9946522,25.1848696 9.94286644,25.2292174 C9.93626111,25.2292174 9.8268769,25.2482609 9.87205734,25.305913 C9.89081646,25.3252174 9.93626111,25.2738261 9.94286644,25.3121739 C9.81366625,25.5354783 9.77482692,25.5933913 9.77482692,25.5933913 C9.7359876,25.6567826 9.63875719,25.6252174 9.63875719,25.7144348 C9.63875719,25.74 9.66465007,25.766087 9.64562673,25.7848696 Z M9.49000523,25.7462609 C9.477323,25.6956522 9.5034801,25.6507826 9.52276765,25.6056522 C9.52276765,25.5993913 9.52276765,25.5933913 9.52276765,25.5863478 C9.52276765,25.580087 9.52276765,25.574087 9.52884455,25.5678261 C9.53571409,25.5678261 9.53571409,25.580087 9.54205521,25.5863478 C9.54205521,25.5933913 9.54205521,25.5933913 9.54205521,25.5993913 C9.56794809,25.6507826 9.52884455,25.7144348 9.49000523,25.7462609 Z M9.46411235,25.5863478 C9.45116591,25.6126957 9.43848368,25.6374783 9.41311923,25.6567826 C9.40624969,25.6567826 9.39964436,25.6252174 9.39964436,25.5863478 C9.39964436,25.5354783 9.41311923,25.4653043 9.44535322,25.4593043 C9.4833999,25.5229565 9.46411235,25.5863478 9.46411235,25.5863478 Z M9.14732087,25.8487826 C9.16713685,25.8166957 9.20597617,25.7848696 9.2247353,25.7527826 C9.2247353,25.7848696 9.21231729,25.8232174 9.18589598,25.8487826 C9.17347797,25.8675652 9.16026731,25.8808696 9.14732087,25.8933913 C9.14097976,25.8933913 9.14097976,25.8868696 9.13490286,25.8808696 C9.13490286,25.874087 9.14097976,25.8613043 9.14732087,25.8487826 Z" id="Fill-32"></path>
            <path d="M9.80341497,24.2013913 C9.86106714,24.1886087 9.83550192,23.9908696 9.84202366,23.9332174 C9.84802366,23.9013913 9.86784975,23.8758261 9.84802366,23.8567826 C9.82324105,23.8567826 9.82950192,23.9144348 9.80341497,23.9144348 C9.79689323,23.8627826 9.77184975,23.8189565 9.7585454,23.7670435 C9.73350192,23.6718261 9.81619757,23.4926087 9.7585454,23.4738261 C9.7585454,23.6269565 9.73350192,23.6269565 9.73350192,23.6269565 C9.68837149,23.5053913 9.63124105,23.2505217 9.64428453,23.1417391 L9.63124105,23.1354783 C9.61245844,23.1482609 9.63124105,23.1863478 9.61245844,23.1996522 C9.60567583,23.2053913 9.60567583,23.1996522 9.59967583,23.1933913 C9.58663236,23.1673043 9.57411062,23.1354783 9.55428453,23.109913 C9.54202366,23.1028696 9.53576279,23.1224348 9.54202366,23.1292174 C9.55428453,23.1673043 9.62498018,23.2948696 9.59967583,23.3272174 C9.58663236,23.3011304 9.56080627,23.2693043 9.54202366,23.2630435 C9.57411062,23.3465217 9.72019757,23.570087 9.68837149,23.6206957 L9.63124105,23.5638261 C9.59967583,23.5502609 9.61245844,23.5758261 9.62498018,23.5823478 C9.70167583,23.6718261 9.75280627,23.7670435 9.76532801,23.8823478 L9.7585454,23.8953913 C9.73976279,23.8698261 9.71419757,23.8505217 9.6951541,23.8189565 L9.67584975,23.8189565 C9.68263236,23.8698261 9.72019757,23.8891304 9.75280627,23.9209565 C9.82950192,23.9715652 9.81619757,24.1505217 9.80341497,24.2013913" id="Fill-33"></path>
            <path d="M9.75553937,26.4232174 L9.79962633,26.5763478 L9.83823502,26.703913 C9.84475676,26.7425217 9.87058285,26.7996522 9.83823502,26.8126957 L9.85075676,26.8317391 L9.93397415,26.7806087 L9.92145241,26.7613043 C9.90866981,26.7675652 9.88910459,26.7806087 9.87684372,26.7550435 L9.8572785,26.6843478 L9.93397415,26.6402609 L9.98484372,26.6908696 C9.99814807,26.7169565 9.97832198,26.7232174 9.97232198,26.736 L9.97832198,26.7485217 L10.1001481,26.6786087 L10.0876263,26.6595652 C10.0808437,26.6658261 10.068322,26.6658261 10.0555394,26.6595652 C10.0427568,26.6595652 10.0231915,26.6337391 10.0106698,26.6272174 L9.95980024,26.5763478 L9.77458285,26.4101739 L9.75553937,26.4232174 Z M9.86380024,26.5763478 L9.90866981,26.6212174 L9.84475676,26.6595652 L9.82597415,26.5763478 L9.80614807,26.5189565 L9.86380024,26.5763478 Z" id="Fill-34"></path>
            <path d="M8.52349465,26.9274783 L8.542799,26.9274783 L8.56210335,26.8186957 L8.30045117,26.7613043 L8.27462508,26.8698261 L8.29392943,26.8766087 C8.30645117,26.8252174 8.33227726,26.7931304 8.37062508,26.8066957 C8.39566856,26.8186957 8.39566856,26.8126957 8.38966856,26.8570435 L8.338799,27.0738261 C8.33227726,27.1246957 8.32549465,27.1510435 8.28792943,27.1385217 L8.28114682,27.1635652 L8.42149465,27.1891304 L8.42801639,27.1698261 C8.38966856,27.1635652 8.38966856,27.1385217 8.40297291,27.0871304 L8.446799,26.8698261 C8.45984248,26.8252174 8.45358161,26.8252174 8.48540769,26.8317391 C8.51749465,26.8377391 8.53001639,26.8766087 8.52349465,26.9274783" id="Fill-35"></path>
            <path d="M8.73715275,27.1317391 L8.72410927,27.0675652 L8.68628319,26.8186957 L8.66697884,26.8186957 L8.6030658,26.9655652 L8.55219623,27.093913 C8.53263101,27.1246957 8.52010927,27.1823478 8.48123971,27.1758261 L8.48123971,27.2021739 L8.57723971,27.207913 L8.58350058,27.1891304 C8.56471797,27.1891304 8.54541362,27.1823478 8.55219623,27.1510435 L8.57723971,27.0871304 L8.66697884,27.099913 L8.67323971,27.1758261 C8.67323971,27.2021739 8.64767449,27.195913 8.63515275,27.195913 L8.63515275,27.2152174 L8.77550058,27.234 L8.77550058,27.2152174 C8.76871797,27.207913 8.75619623,27.2021739 8.74967449,27.195913 C8.74341362,27.1823478 8.73715275,27.1510435 8.73715275,27.1317391 Z M8.58350058,27.0615652 L8.61558754,26.9846087 L8.64167449,26.9274783 L8.65367449,27.0104348 L8.6604571,27.0675652 L8.58350058,27.0615652 Z" id="Fill-36"></path>
            <path d="M9.21027106,27.1056522 L9.17192323,26.9081739 C9.16566236,26.8635652 9.15887976,26.8317391 9.19748845,26.8252174 L9.19070584,26.8066957 L9.05061889,26.8317391 L9.05714063,26.8570435 C9.09496671,26.8445217 9.10070584,26.8766087 9.10801019,26.9204348 L9.14609715,27.1186957 C9.15887976,27.1635652 9.16566236,27.195913 9.1207928,27.2021739 L9.12653193,27.2206957 L9.26740149,27.195913 L9.26140149,27.1698261 C9.22253193,27.1823478 9.21731454,27.1573043 9.21027106,27.1056522" id="Fill-37"></path>
            <path d="M8.97757624,27.2021739 C8.92618494,27.2021739 8.93244581,27.1635652 8.93244581,27.1056522 L8.93244581,26.9337391 C8.93244581,26.8828696 8.92618494,26.8570435 8.97079363,26.8570435 L8.97079363,26.8377391 L8.82392407,26.8377391 L8.82392407,26.8570435 C8.8690545,26.8570435 8.8690545,26.8828696 8.8690545,26.9337391 L8.8690545,27.1317391 C8.8690545,27.1823478 8.8690545,27.207913 8.82392407,27.207913 L8.82392407,27.234 L9.07357624,27.234 L9.07957624,27.1186957 L9.06027189,27.1186957 C9.04775015,27.1823478 9.02844581,27.2021739 8.97757624,27.2021739" id="Fill-38"></path>
            <polyline id="Fill-41" points="14 26 14 27 47 27 47 26 14 26"></polyline>
        </g>
    </g>
</svg>