<?xml version="1.0" encoding="UTF-8"?>
<svg width="130px" height="91px" viewBox="0 0 130 91" version="1.1" xmlns="http://www.w3.org/2000/svg" xmlns:xlink="http://www.w3.org/1999/xlink">
    <!-- Generator: Sketch 50.2 (55047) - http://www.bohemiancoding.com/sketch -->
    <title>ic-logo-slotgallina-desktop</title>
    <desc>Created with Sketch.</desc>
    <defs>
        <polygon id="path-1" points="0.0719696034 0.113551035 101.072654 0.113551035 101.072654 59.6482697 0.0719696034 59.6482697"></polygon>
        <polygon id="path-3" points="0.183469409 0.0157073777 62.9535456 0.0157073777 62.9535456 41.4906618 0.183469409 41.4906618"></polygon>
    </defs>
    <g id="SYMBOLS" stroke="none" stroke-width="1" fill="none" fill-rule="evenodd">
        <g id="0:-Icons-/-Logo-/-Slot-Gallina-/-Topmenu-/-Desktop">
            <g id="ic-logo-slotgallina-desktop">
                <path d="M83.5368218,41.1583798 C84.4199184,41.3603886 85.2175921,41.5045386 85.2175921,41.5045386 C85.2175921,41.5045386 85.8442236,41.6486885 86.0437402,40.869881 L86.3324109,39.3180318 C86.3324109,39.3180318 86.5032568,38.2509243 85.6201601,38.0489155 C84.7372598,37.8471055 83.9395861,37.7029555 83.9395861,37.7029555 C83.9395861,37.7029555 83.3127583,37.5586067 83.1134381,38.3374143 L82.8247674,39.8892634 C82.8247674,39.8892634 82.6537251,40.956371 83.5368218,41.1583798" id="Fill-1" fill="#FFFFFF"></path>
                <g id="Group-5" transform="translate(14.335347, 31.200220)">
                    <mask id="mask-2" fill="white">
                        <use xlink:href="#path-1"></use>
                    </mask>
                    <g id="Clip-4"></g>
                    <path d="M90.5242236,26.3907606 C89.4740121,25.7891084 89.8887553,23.410733 90.9804018,22.1795927 C92.0720483,20.9484524 93.1774411,20.5289263 94.3794502,21.2425184 C95.5639819,21.9455727 95.4671692,23.0932054 95.1046616,23.9495557 C94.7205529,24.5911723 94.3586344,25.1568367 94.0752659,25.525463 C93.9491934,25.6791567 93.8680906,25.7751904 93.8680906,25.7751904 C92.9836193,26.7265803 91.574435,26.9924128 90.5242236,26.3907606 Z M57.5619577,5.49716465 C57.5619577,5.49716465 57.6546465,4.1833121 58.7671088,3.93298819 C59.8793746,3.68286312 60.5126828,4.93408499 60.5126828,4.93408499 C60.7599184,5.35639474 61.0224713,7.10826442 61.0224713,7.10826442 C61.2457492,8.56745992 61.9173505,12.8987196 60.1821843,18.2338597 C59.6757341,17.3785035 59.3790121,16.694139 59.3790121,16.694139 C57.519148,13.0003205 57.4898882,7.26991123 57.4898882,7.26991123 C57.4898882,7.26991123 57.5002961,6.16979831 57.5619577,5.49716465 Z M46.3153867,7.5617901 C46.3153867,7.5617901 46.4080755,6.24793754 47.5203414,5.99781246 C48.6326073,5.74748856 49.2661118,6.99871043 49.2661118,6.99871043 C49.5133474,7.42102018 49.7759003,9.17288986 49.7759003,9.17288986 C49.9985891,10.6283076 50.7188912,14.9581755 48.9523051,20.2563337 C48.6600997,19.7775569 48.3712326,19.2598099 48.0912024,18.6963326 C46.4226073,15.3385327 46.2486193,10.6927278 46.2433172,9.33453667 C46.2433172,9.33453667 46.2537251,8.23442375 46.3153867,7.5617901 Z M34.8730302,24.329714 C35.3058399,22.7341228 36.1090121,21.8582874 37.4993444,21.952134 C38.8898731,22.0459806 39.4096767,23.1898356 39.32229,24.1263134 C39.2115347,25.3164952 39.1314139,26.0275026 38.9263988,26.5593663 C38.8309607,26.7840415 38.709994,26.9930093 38.5680151,27.1830884 C38.3792991,27.4186991 38.1332417,27.641386 37.8037251,27.8976747 C37.3614894,28.1792145 36.8493444,28.329727 36.3252205,28.3026864 C35.1202659,28.2400558 34.4406133,25.9251064 34.8730302,24.329714 Z M30.6916254,53.8349295 C27.764858,54.1083174 27.6947523,44.9974418 29.6103867,41.1495319 C29.6300242,41.1101641 29.6508399,41.0713927 29.6706737,41.0320249 C31.4081964,45.7215718 33.3261873,53.5887809 30.6916254,53.8349295 Z M98.11371,26.3571587 C98.2755227,26.1197586 98.4275166,25.8789784 98.5661571,25.6356135 C100.390085,22.4319049 101.367048,20.6227729 100.993937,19.9093796 C100.621021,19.1957874 99.5258399,18.6329066 98.9730453,18.5631181 C98.5196163,18.505657 98.1830302,18.6517952 97.7716254,19.2464885 C97.7115347,19.1691446 97.6496767,19.0929936 97.5852659,19.0180356 C95.5681057,16.667695 91.0357795,16.1219133 88.2030755,19.6192902 C86.9674864,21.1448941 86.3161118,22.8744951 86.2734985,24.5058752 C86.0462931,24.5518044 85.7984683,24.547629 85.5524109,24.4388704 C85.0418369,24.2126046 84.95229,23.4842992 84.966429,23.1999758 C84.9778187,22.967944 85.0893595,22.5549792 85.0893595,22.5549792 C85.2984985,21.3795106 86.0724109,18.8995344 84.1876073,16.4593237 C82.8043444,14.668285 80.338861,13.5389444 77.2681511,14.9691111 C77.2871994,14.8710891 77.298,14.815815 77.298,14.815815 C77.298,14.815815 77.5332568,13.5803005 76.5535438,13.2242003 C75.6292085,12.8881818 75.3876677,12.8979243 74.9468066,12.8488139 C74.6404622,12.8146156 74.0601752,12.8436444 73.8276677,13.6838897 C73.8276677,13.6838897 72.6884985,19.1198353 72.4544199,20.8259747 C72.3515196,21.5767475 71.8625468,22.4265366 70.7983927,22.1656748 C70.7599033,22.1561311 70.7241631,22.1511604 70.686852,22.1436049 C70.097139,21.8292586 69.7862779,21.3590314 69.8976224,20.7555897 C69.9035136,20.7245726 69.9090121,20.6955438 69.9145106,20.665322 C70.6980453,17.4260233 71.2494653,13.4745242 71.2494653,13.4745242 C71.2494653,13.4745242 71.3627734,12.1292569 70.404858,11.910149 C69.447139,11.6912398 69.2232719,11.6598251 68.7674864,11.5661773 C68.4917764,11.5095114 67.9743293,11.5661773 67.7581208,12.4107968 C67.541716,13.2554163 66.8312326,18.3859628 65.8733172,20.1690484 C65.2987251,21.2389395 64.5682115,21.5091462 64.0759003,21.55428 C64.0594048,21.5556718 64.0434985,21.5596484 64.027003,21.5614378 C63.5329245,21.5518941 63.0565196,21.3647974 62.6089819,21.0687431 C63.1372296,19.8248779 63.5733776,18.3774132 63.7797674,16.7394717 C64.5974713,10.2499388 64.6724864,7.84193814 63.7312628,3.57847864 C63.3396918,1.80573207 61.4334834,-0.792944215 57.6546465,0.429248832 C53.2053867,1.86836275 53.8852356,6.84243196 53.8852356,6.84243196 C53.8544048,8.31276181 54.7504622,15.4138883 57.2222296,19.6057699 C57.2222296,19.6057699 57.7866103,20.5193826 58.7180151,21.6264544 C57.8738006,22.9367281 56.6020785,24.1744297 54.7863988,24.251376 C54.4761269,24.2646974 54.1884381,24.2730482 53.9182266,24.2819954 C53.6089366,24.2672822 53.2931662,24.2372592 52.9789668,24.1732367 C52.545568,24.0847585 52.0241934,23.7978503 51.4598127,23.326629 C51.9197221,22.0829625 52.2997069,20.5975218 52.5331964,18.804296 C53.3776073,12.3181431 53.4259154,9.90676241 52.4846918,5.64310409 C52.0931208,3.87055634 50.1869124,1.27188006 46.4080755,2.4940731 C41.9588157,3.93298819 42.6386647,8.90705741 42.6386647,8.90705741 C42.6078338,10.3773873 43.5038912,17.4787126 45.9756586,21.6705942 C46.4626677,22.4965239 46.9553716,23.234373 47.4553414,23.8897086 C46.2189668,26.2547625 45.1593293,26.7436795 44.2505076,27.0043424 C43.504284,27.2184797 42.9548278,26.5446531 43.0300393,25.4141196 L43.0952356,24.4321102 C43.1107492,24.2788142 43.1242991,24.1263134 43.1329396,23.9752045 C43.3493444,20.2837719 43.617003,18.573656 42.9681813,18.1042241 C42.3193595,17.6349911 40.8981964,17.4474967 40.3728943,17.6349911 C39.944994,17.7878895 39.7427281,17.9618636 39.6490574,18.6297254 C39.5622598,18.5881704 39.4740876,18.5486037 39.384148,18.5110253 C36.5416254,17.3222353 32.2469124,18.8864118 31.2581662,23.2972025 C30.5435589,26.485999 31.5087402,29.4936636 33.6502054,30.9755254 C32.7869426,31.4855181 32.0045861,32.0225514 31.2931208,32.5735026 C29.3238761,26.5736819 27.1339063,19.9286659 26.9133776,19.3729428 C26.3336798,17.9115602 24.8068671,18.3754249 24.8068671,18.3754249 C24.8068671,18.3754249 15.4747523,20.9637622 14.027864,21.3152893 C14.027864,21.3152893 12.8107341,21.7713997 13.2103565,22.97033 C13.6274562,24.2217507 14.1721994,25.6682212 14.1721994,25.6682212 C14.6698127,27.2512863 16.1622598,26.7836438 16.1622598,26.7836438 L22.6221994,25.1212466 C23.6883172,28.2088398 20.6191782,31.0451151 16.4790121,32.0462118 C12.6241782,32.9781166 8.07496375,28.9804896 6.53008459,25.789506 C4.98520544,22.5987212 5.01603625,17.4995895 6.34470695,14.8404696 C7.67337764,12.1813498 11.2636949,11.6528661 12.80229,11.2740996 C14.6664743,10.8154044 14.4589063,9.69958408 14.4192387,7.93717654 C14.378,6.11253597 14.2544804,5.64310409 12.2769879,5.67451884 C12.2769879,5.67451884 4.62485801,5.91430489 1.44241088,12.8591529 C-1.74003625,19.804001 1.61738066,27.8541315 1.61738066,27.8541315 C4.70713897,35.9565536 12.4931964,38.7719519 17.653136,37.6145767 C22.8128792,36.4570026 25.5833323,32.2965358 25.5833323,32.2965358 C25.5833323,32.2965358 26.3601903,33.9684768 27.522139,36.3383025 C26.1862024,38.0671082 25.4024713,39.6489803 24.9449184,40.6802989 C23.987003,42.8389698 21.9580604,49.1374294 23.5235589,53.3814038 C25.4391934,58.5743821 30.7534834,61.7651669 34.8936495,58.0113025 C39.0340121,54.2572392 34.4920634,42.338322 34.4920634,42.338322 C34.4920634,42.338322 33.7218822,39.9818177 32.6718671,36.7777114 C33.865432,35.4724085 35.0387704,34.4915921 35.8118973,33.9360679 C35.8700242,33.9006766 35.9279547,33.8617064 35.9854924,33.8189584 C36.0196616,33.7935085 36.0548127,33.7682574 36.0893746,33.7430063 C36.1321843,33.7143751 36.1732266,33.6873346 36.2121088,33.6624811 C36.3238459,33.5909032 36.4241934,33.5155476 36.519435,33.4388001 C37.6798127,32.6411039 39.0285136,31.8577233 40.1757341,30.6880207 C40.2069577,30.7098918 40.237003,30.7327569 40.2697976,30.7530374 C42.1441934,31.9209505 45.8107039,30.7271898 47.3803263,29.238369 C48.0739215,28.5808462 49.00729,27.7213146 49.9035438,26.3951348 C50.6521239,26.9590098 51.4213233,27.3656121 52.2164441,27.6234915 C52.2474713,27.634427 52.277713,27.6467543 52.3095257,27.6560992 C52.6946163,27.7688344 53.3021994,27.9481769 54.1322749,27.9624925 C54.3180453,27.9704456 54.8388308,27.9781999 55.3910363,27.859301 C56.3098731,27.6968588 57.4062326,27.3200806 58.6822749,26.5635417 C58.9141934,26.4261519 59.1258852,26.2569496 59.3161722,26.065081 C59.6922296,25.6863145 60.3524411,24.961588 61.0570332,23.9205269 C62.9241631,25.3699798 65.2460967,26.2474059 67.4910514,24.6074761 C68.1064894,25.3268343 69.4062931,26.3227615 71.8674562,26.2692769 C72.3320785,26.2591367 72.8416707,26.1670796 73.2841027,25.9527434 C74.6642236,25.3948333 75.3061722,24.1088166 75.6068218,22.8255835 C75.7107039,22.382198 75.8167462,21.9145556 75.9229849,21.4375683 C75.923574,21.4351823 75.9245559,21.4329952 75.9253414,21.4308081 C76.398997,19.8666317 77.615145,17.2749143 80.1428792,18.1891235 C82.609148,19.0808651 81.6003716,22.1074183 81.4224562,23.6151278 C81.2174411,25.352483 82.0302356,27.2542687 83.9767009,27.911195 C85.1875468,28.3199844 86.4219577,28.0748301 87.1823202,27.8312663 C87.6648127,28.566133 88.3391631,29.2027788 89.2130302,29.6877193 C90.4886798,30.3953466 91.8034079,30.4941639 93.0513686,30.1871741 C93.2917311,30.809902 93.7620483,31.3292396 94.3431208,31.672416 C95.2126677,32.1861865 95.6093444,32.4365104 96.4675015,32.6607879 C97.7350997,32.9920346 98.2236798,32.1704791 98.2236798,32.1704791 L98.7248278,31.3491224 C98.7248278,31.3491224 99.3993746,30.1824022 98.6653263,29.6097789 C98.0883776,29.1598321 96.8541631,28.6120621 97.6543897,27.1415335 L98.11371,26.3571587 Z" id="Fill-3" fill="#FFFFFF" mask="url(#mask-2)"></path>
                </g>
                <g id="Group-8" transform="translate(18.459215, 0.183120)">
                    <mask id="mask-4" fill="white">
                        <use xlink:href="#path-3"></use>
                    </mask>
                    <g id="Clip-7"></g>
                    <path d="M37.823932,13.8178199 C37.8630106,13.8134457 37.9026782,13.8110598 37.9433278,13.8110598 C38.8609864,13.8110598 40.1955483,14.9509382 41.3904879,16.7700116 C42.6404124,18.6725926 43.6452613,21.1710598 43.8341737,22.8457844 C43.9912734,24.2351914 43.6205181,25.5993473 42.7904426,26.6869341 C41.9707749,27.7608018 40.7988112,28.4358214 39.4911526,28.5869303 C38.1827085,28.7386358 36.8911526,28.3487349 35.8531163,27.489601 C34.8023157,26.6199292 34.1371949,25.3756663 33.9802915,23.9860605 C33.5125272,19.8430905 35.9958807,14.0293725 37.823932,13.8178199 M23.9225725,10.018424 C23.9225725,10.018424 25.2382825,12.7986298 25.9617266,18.3188784 C26.2126934,20.2319972 26.1765604,21.9876446 25.9438565,23.5554 C25.0075423,22.3013945 24.3261224,21.0235297 23.5722402,19.6911862 C21.9313338,16.7910873 20.7652613,11.3014582 20.7497477,10.4608153 C20.7497477,10.4608153 20.4895514,8.9417727 21.4506088,8.53338088 C21.6273459,8.45822406 21.7919079,8.41110193 21.9460619,8.38525434 C23.0583278,8.2132685 23.6018927,9.23484453 23.9225725,10.018424 M6.12572961,30.8320912 C9.09196828,31.7081255 13.7882674,31.7914342 17.0840227,31.6246179 L18.1138112,31.6454948 C19.053071,31.6454948 19.8750952,32.7346722 19.8750952,33.6854656 C19.8750952,33.6854656 19.9754426,34.6330778 19.0098686,35.1882043 C18.7378897,35.3448805 18.3021344,35.4729254 17.8161073,35.5765146 C16.5701103,35.8391658 15.004219,35.9411643 15.004219,35.9411643 C14.698071,35.9566729 14.4357145,35.9882865 14.2108656,36.0358063 C12.6422251,36.3569128 12.8790529,37.4331664 13.0041435,39.1422881 C13.149068,41.1174412 13.1575121,42.041194 19.0306843,41.1504466 C19.1954426,41.1253943 19.3578444,41.094576 19.5180861,41.0589859 C21.897361,40.5344788 23.7829502,38.8400702 25.036213,36.6786158 C25.0538867,36.6481952 25.0684184,36.6175757 25.085503,36.5871551 C25.8861224,35.35005 27.0686903,33.1832272 27.9449139,30.1202885 C29.1041133,30.94761 30.370926,31.5745133 31.8602311,31.9982149 C31.918358,32.0296296 31.9823761,32.0576643 32.0583731,32.0801318 C33.6181767,32.5443942 37.7180861,33.0579658 41.4173912,31.4784796 C42.338781,31.1780512 43.1943852,30.711204 43.9523912,30.0980198 C48.9689773,26.7292844 51.5493399,22.8129778 51.5493399,22.8129778 C53.1307447,26.0272242 57.312935,26.459873 60.0503973,24.6378172 C62.7876631,22.8159602 62.9282674,20.0773093 62.9526178,18.493449 C62.9767719,16.9095886 62.5245211,16.5361904 62.152784,16.3375617 C61.7810468,16.1389329 61.0234335,16.0552265 60.2371495,16.233376 C59.4508656,16.4113267 59.3605332,16.9002437 59.1851707,19.0487743 C59.0213943,21.0559386 57.1972704,21.6921868 55.6873459,21.2078429 C54.0664698,20.6881076 53.5937961,17.0143707 52.6515906,11.4941222 C52.5103973,10.6671983 52.3778444,9.91563012 52.2521647,9.22589729 L55.8823459,8.25323284 C56.431213,8.10610044 56.7615151,7.53128995 56.6161979,6.9755669 L56.2470136,5.5632947 C56.1018927,5.00757166 55.5339773,4.67314369 54.9851103,4.82027609 L54.9758807,4.82266202 C54.9721495,4.82365616 54.9684184,4.82345733 54.9646873,4.82445147 L51.5727085,5.73329227 C51.2043097,3.97545776 50.9036601,2.76141665 50.6177387,1.55115325 C50.2495363,-0.00805251641 49.4121949,-0.0710808547 48.8762885,0.0611394765 C48.3388112,0.193757463 48.5369532,0.144050571 47.6196873,0.499156604 C46.7026178,0.854262636 46.8369381,1.86689143 46.9634033,2.30351676 C47.2616964,3.33244942 47.5772704,4.84155064 48.0269683,6.68329038 L44.7496722,7.56151174 C44.2008051,7.70844531 43.870503,8.28345463 44.0158202,8.83917768 L44.3848082,10.2514499 C44.5301254,10.8071729 45.0980408,11.1416009 45.6467115,10.9944685 L45.6559411,10.9920826 C45.6596722,10.9910884 45.6634033,10.9912872 45.6671344,10.9902931 L48.8554728,10.1359311 C49.3731163,13.2026474 49.2873006,17.3909501 48.7484486,20.0287954 C48.5642492,20.9312737 47.9038414,21.9500662 47.0659109,22.9386368 C47.0566813,22.7847443 47.0443097,22.6306529 47.0268323,22.4761639 C46.7784184,20.2751428 45.6162734,17.3281206 44.0660921,14.968435 C42.0397024,11.8834265 39.6947931,10.3264079 37.459068,10.5854802 C32.4071344,11.1702321 30.3453973,20.4363919 30.7876329,24.3554821 C30.9641737,25.9190621 31.5448535,27.3699068 32.4593701,28.5833514 C31.8889018,28.3845239 31.3190227,28.1809244 30.8451707,27.9290099 C30.0484789,27.4337304 29.3552764,26.9404393 28.7429804,26.4471481 C28.8608051,25.6709253 28.9542795,24.8561299 29.0165302,24.002762 C29.6808656,14.9294648 27.8738263,9.5462085 26.577361,7.16485074 C26.577361,7.16485074 25.1023912,3.95736445 21.4973459,4.62462976 C21.3810921,4.64570549 21.2626782,4.67095659 21.1419079,4.70038307 C17.2925725,5.63805387 16.925352,8.89286112 17.076364,10.5345803 C17.3143701,13.1215258 19.2734033,20.0321755 22.5065151,24.3222779 C23.3369834,25.4241802 24.1205181,26.4177216 24.9042492,27.3032996 C24.5831767,28.0544701 24.2167417,28.7215366 23.8261526,29.2969436 C21.4802613,27.1088462 16.9866208,27.1187876 13.0004124,27.1309161 C10.387648,27.1388692 8.67486858,26.8181603 7.6270136,26.5044104 C6.60881118,26.1994089 5.78246677,25.4377005 5.40267825,24.434019 C4.98793505,23.3368885 4.79332779,21.7564081 5.96077492,20.1290045 C8.06335801,17.1978885 12.5882221,16.0597996 14.0557296,15.6241684 C15.5234335,15.1889348 15.5208807,13.9649523 15.5208807,13.9649523 C15.623781,12.2747192 15.5432674,11.5758403 14.6531012,10.8274533 C14.2475876,10.4866629 13.4053369,10.4771192 12.3678897,10.6868822 C10.8622855,10.988106 8.9393852,11.7555804 7.34109215,12.6461291 C4.65134894,14.1450901 0.914339879,16.4210692 0.255306647,22.0520647 C-0.337351964,27.1152087 2.83606193,29.8606197 6.12572961,30.8320912" id="Fill-6" fill="#FFFFFF" mask="url(#mask-4)"></path>
                </g>
                <path d="M54.3894864,20.629036 C54.4967069,20.6878889 54.6153172,20.7159236 54.7345166,20.7159236 C54.9740937,20.7159236 55.2164199,20.6023931 55.3766616,20.3952147 C55.62429,20.0756988 55.6268429,19.7136338 55.6297885,19.2945053 C55.632145,18.972007 55.6346979,18.606562 55.7299396,18.1307676 C55.8636707,17.4619117 56.2214653,17.0407949 56.3671752,16.8694055 C56.4920695,16.7220743 56.4938369,16.5001827 56.3716918,16.341916 C56.2574018,16.1943859 56.0732024,16.1496497 55.9098187,16.2327597 L56.0156647,16.4590254 L55.9051057,16.2351456 L55.8925378,16.2421045 C55.8465861,16.2687474 54.7602417,16.917323 54.1510876,18.7395776 C53.7021752,20.0814648 54.1683686,20.50795 54.3894864,20.629036" id="Fill-9" fill="#FFFFFF"></path>
                <path d="M63.0322674,71.1503649 C61.6833701,71.6028964 60.4497447,70.8177263 60.0181133,69.4994996 C59.5864819,68.181074 60.1123731,66.8049884 61.4612704,66.352258 C62.8219502,65.8955511 64.0437931,66.6850954 64.4756208,68.0033221 C64.9070559,69.3215489 64.3929471,70.6936579 63.0322674,71.1503649 M60.8428867,64.4637938 C58.1804396,65.3577226 57.0976299,67.8959553 57.8599562,70.2238284 C58.6218897,72.5515027 60.9880076,73.9323602 63.6504547,73.0386303 C66.325077,72.1409238 67.407494,69.6024923 66.6455604,67.2750168 C65.8832341,64.9469448 63.5175091,63.5660874 60.8428867,64.4637938" id="Fill-11" fill="#FFFFFF"></path>
                <path d="M75.9284637,61.8993556 C75.8640529,61.4663092 75.5971798,61.2666863 75.1692795,61.3317029 L74.2406239,61.4728705 C73.8129199,61.5382848 73.6155634,61.8084914 73.6799743,62.2415379 L74.2657598,66.1882651 L70.6615,62.4477221 C70.4113187,62.1948134 70.1468021,62.0957973 69.7923459,62.1498784 L69.2183429,62.2373625 C68.7904426,62.3023791 68.5932825,62.5727846 68.657497,63.0058311 L69.7450196,70.3306386 C69.8090378,70.7634862 70.0761073,70.9633079 70.5038112,70.8980924 L71.4326631,70.7569249 C71.8481918,70.6934989 72.0577236,70.4213039 71.9933127,69.9882575 L71.3981012,65.9794961 L75.0363338,69.7782956 C75.2739471,70.0331925 75.5386601,70.1320098 75.8929199,70.0781276 L76.4551405,69.9926317 C76.8828444,69.9274163 77.0802009,69.6572096 77.01579,69.2239643 L75.9284637,61.8993556 Z" id="Fill-13" fill="#FFFFFF"></path>
                <path d="M85.0465498,67.9216637 L81.8207039,67.9216637 L81.8207039,61.8023477 C81.8207039,61.3641317 81.5734683,61.1265328 81.1532266,61.1265328 L80.2137704,61.1265328 C79.7813535,61.1265328 79.5462931,61.3641317 79.5462931,61.8023477 L79.5462931,69.2106628 C79.5462931,69.6486799 79.7813535,69.8862788 80.2137704,69.8862788 L85.0465498,69.8862788 C85.4791631,69.8862788 85.7138308,69.6486799 85.7138308,69.2106628 L85.7138308,68.5972797 C85.7138308,68.1594614 85.4791631,67.9216637 85.0465498,67.9216637" id="Fill-15" fill="#FFFFFF"></path>
                <path d="M90.0535332,61.5445081 L89.1193792,61.4450943 C88.6893187,61.3991651 88.4312825,61.6107177 88.3859199,62.04615 L87.6198625,69.4139043 C87.5746964,69.8497343 87.783639,70.1109938 88.2138958,70.1569229 L89.1482462,70.2563367 C89.565935,70.3008741 89.8363429,70.0907133 89.8817054,69.6550822 L90.6475665,62.2875267 C90.6927326,61.8516967 90.4716148,61.5892443 90.0535332,61.5445081" id="Fill-17" fill="#FFFFFF"></path>
                <path d="M100.885479,63.823748 L99.9774426,63.5799854 C99.559361,63.4678467 99.272065,63.6370489 99.1613097,64.0603528 L98.1521405,67.9197947 L96.309361,63.0367885 C96.1789683,62.7039512 95.9747387,62.506913 95.6281375,62.4138617 L95.0667024,62.2633493 C94.6482281,62.1510117 94.3613248,62.320214 94.2505695,62.7435178 L92.3771556,69.9056844 C92.2664003,70.3289883 92.4335151,70.619873 92.8514003,70.7320118 L93.7594366,70.9753767 C94.1657356,71.0845331 94.4648142,70.918512 94.5757659,70.4952081 L95.6010378,66.5755215 L97.4516722,71.5253338 C97.5700861,71.854791 97.7743157,72.052028 98.1209169,72.1448805 L98.6705695,72.2922117 C99.0886511,72.4043504 99.3759471,72.235347 99.486506,71.8120431 L101.359724,64.6498765 C101.470479,64.2265727 101.303757,63.9356879 100.885479,63.823748" id="Fill-19" fill="#FFFFFF"></path>
                <path d="M109.991684,67.7258384 L105.75608,65.7308026 C105.36392,65.5460918 105.052077,65.6614118 104.869449,66.0586693 L101.783618,72.7752633 C101.601382,73.1723219 101.715083,73.4880601 102.10744,73.6727709 L106.343044,75.6676079 C106.735204,75.8525175 107.047243,75.7369987 107.229479,75.33994 L107.485159,74.784217 C107.667394,74.3869595 107.553693,74.0712213 107.161337,73.8865105 L104.38244,72.5776287 L105.007893,71.2160575 L107.338663,72.3137845 C107.730823,72.4984953 108.054056,72.3885436 108.236488,71.991485 L108.408316,71.6168939 C108.590944,71.220034 108.465853,70.8989275 108.073693,70.7142167 L105.742727,69.6162909 L106.394298,68.1982527 L109.173391,69.5069357 C109.565748,69.6918454 109.877394,69.5765254 110.060023,69.1792679 L110.31531,68.6235449 C110.497938,68.2264862 110.384041,67.9105492 109.991684,67.7258384" id="Fill-21" fill="#FFFFFF"></path>
                <path d="M129.481394,41.1320749 C130.062074,40.6839176 130.158298,39.8371109 129.693872,39.2668735 L127.895473,37.0596887 C127.43085,36.4894512 126.591349,36.4242358 126.046409,36.9161352 L117.235276,45.3768446 C116.719008,45.8426976 116.658917,46.6384055 117.098796,47.17862 L117.829506,48.0751335 C118.269582,48.615348 119.052527,48.7068087 119.602376,48.282113 L129.481394,41.1320749 Z" id="Fill-23" fill="#FF8122"></path>
                <path d="M113.401199,44.4869918 L114.10697,44.8667525 C114.531924,45.095603 115.059583,44.9431023 115.301713,44.5219855 L119.775323,37.2598086 C120.030807,36.8150314 119.870172,36.2443963 119.421456,36.0030196 L117.684326,35.0681324 C117.235414,34.8265569 116.678299,35.0110689 116.457378,35.4741383 L113.015127,43.2914417 C112.805595,43.7302541 112.976048,44.2583401 113.401199,44.4869918" id="Fill-26" fill="#FF8122"></path>
                <path d="M129.097462,47.8788111 C128.94861,47.3869117 128.425861,47.1186934 127.945921,47.2880944 L120.053822,50.3544132 C119.599215,50.514867 119.35139,51.0105441 119.49219,51.4765959 L119.726465,52.250234 C119.867462,52.7162858 120.347009,52.9860948 120.812417,52.8612311 L129.046601,50.9258436 C129.537931,50.7940209 129.822477,50.2752798 129.673625,49.7833804 L129.097462,47.8788111 Z" id="Fill-28" fill="#FF8122"></path>
                <path d="M13.4194955,37.7093776 L3.42638369,30.7239688 C2.81310574,30.3229336 1.99343807,30.5181822 1.62111178,31.1540328 L0.180114804,33.6155181 C-0.192015106,34.2511698 0.0320483384,35.0729241 0.673800604,35.4252466 L11.522713,40.9492728 C12.1306888,41.2831043 12.8904622,41.0705576 13.2431511,40.4683089 L13.8285438,39.4684051 C14.1810363,38.8659576 14.0003716,38.0891383 13.4194955,37.7093776" id="Fill-30" fill="#FF8122"></path>
                <path d="M11.3838172,43.080923 L3.11939124,41.28213 C2.61961782,41.1894764 2.14380211,41.5360328 2.07153625,42.0454291 L1.79189879,44.0170032 C1.71982931,44.5263994 2.07998036,44.9944395 2.58544864,45.0479241 L11.0158112,45.6760204 C11.4945725,45.7269203 11.9273822,45.3853345 11.9959169,44.9029788 L12.1094215,44.1019026 C12.1777598,43.6195469 11.8574728,43.168606 11.3838172,43.080923" id="Fill-32" fill="#FF8122"></path>
                <path d="M15.1919335,36.5767962 C15.495136,36.9553639 16.0396828,37.0235617 16.4249698,36.7310864 L17.0643656,36.2459471 C17.4496526,35.9536706 17.5378248,35.4053042 17.2638822,35.004269 L12.6736254,27.8174478 C12.3845619,27.3941439 11.8060423,27.2987066 11.3995468,27.6074859 L9.82521148,28.8020419 C9.41871601,29.1106223 9.34664653,29.6995495 9.66693353,30.0991929 L15.1919335,36.5767962 Z" id="Fill-34" fill="#FF8122"></path>
            </g>
        </g>
    </g>
</svg>