<?xml version="1.0" standalone="no"?>
<!DOCTYPE svg PUBLIC "-//W3C//DTD SVG 20010904//EN"
 "http://www.w3.org/TR/2001/REC-SVG-20010904/DTD/svg10.dtd">
<svg version="1.0" xmlns="http://www.w3.org/2000/svg"
 width="1838.000000pt" height="366.000000pt" viewBox="0 0 1838.000000 366.000000"
 preserveAspectRatio="xMidYMid meet">
<metadata>
Created by potrace 1.15, written by Peter Selinger 2001-2017
</metadata>
<g transform="translate(0.000000,366.000000) scale(0.100000,-0.100000)"
fill="#000000" stroke="none">
<path d="M4483 3320 c-14 -6 -24 -21 -28 -42 -3 -18 -4 -700 -3 -1515 2 -1198
5 -1484 16 -1495 10 -10 67 -14 222 -16 200 -3 210 -2 229 17 l21 21 0 1500
c0 1487 0 1500 -20 1520 -19 19 -33 20 -217 19 -109 0 -208 -4 -220 -9z m397
-1500 l0 -1480 -185 0 -185 0 0 1480 0 1480 185 0 185 0 0 -1480z"/>
<path d="M14082 3314 l-22 -15 0 -1509 0 -1509 22 -15 c19 -13 57 -16 220 -16
185 0 199 1 218 20 19 19 20 33 20 391 l0 372 56 63 c31 35 59 64 64 64 5 0
146 -192 315 -427 168 -236 320 -440 336 -456 l29 -27 240 0 c231 0 241 1 261
21 47 47 40 58 -407 655 -228 306 -414 562 -412 570 2 7 158 179 348 380 190
202 353 381 363 398 22 40 22 71 -3 96 -19 19 -33 20 -247 20 -126 0 -238 -3
-251 -6 -19 -5 -322 -354 -627 -721 l-60 -71 -5 855 c-5 831 -6 855 -24 869
-30 22 -403 20 -434 -2z m399 -946 l0 -933 22 29 c69 91 183 228 450 544 l299
352 225 0 224 0 -28 -33 c-15 -19 -188 -204 -383 -411 -195 -208 -355 -382
-355 -387 0 -4 194 -268 430 -585 237 -317 434 -582 438 -590 7 -12 -27 -14
-220 -13 l-228 0 -344 481 -345 481 -35 -40 c-20 -23 -62 -70 -93 -105 l-58
-65 0 -377 0 -376 -185 0 -185 0 0 1480 0 1480 185 0 185 0 1 -932z"/>
<path d="M2925 2415 c-49 -8 -130 -26 -180 -40 -96 -28 -287 -114 -301 -136
-16 -27 -5 -107 31 -209 20 -58 44 -111 53 -117 27 -21 79 -15 143 17 160 81
365 122 506 101 177 -26 292 -141 309 -308 l7 -60 -48 -6 c-26 -4 -69 -7 -96
-7 -79 0 -277 -29 -389 -56 -296 -73 -506 -215 -599 -406 -61 -124 -75 -191
-75 -343 1 -113 4 -141 27 -211 66 -198 223 -344 437 -401 50 -14 101 -18 220
-17 139 1 164 4 245 28 102 31 196 78 273 136 58 44 57 45 67 -42 10 -87 13
-88 232 -88 173 0 184 1 204 21 20 20 21 28 15 93 -21 210 -25 355 -26 806 0
379 -4 517 -15 590 -54 358 -227 563 -539 641 -109 27 -373 35 -501 14z m503
-44 c250 -73 396 -232 468 -513 14 -53 18 -161 24 -678 7 -542 16 -759 36
-822 5 -17 -8 -18 -169 -18 l-174 0 -12 128 -13 129 -77 -76 c-153 -152 -327
-221 -555 -221 -122 0 -227 24 -319 72 -76 39 -192 153 -230 225 -62 116 -82
284 -52 427 73 345 393 547 945 596 63 5 145 10 183 10 l67 0 0 59 c0 190 -92
347 -234 400 -174 65 -439 39 -651 -64 -49 -24 -93 -40 -96 -37 -4 4 -25 60
-47 124 l-41 117 92 45 c103 50 222 89 342 111 122 22 416 14 513 -14z"/>
<path d="M3317 1359 c-399 -35 -599 -180 -600 -434 0 -95 12 -144 52 -207 64
-101 163 -143 320 -136 114 6 172 24 262 84 74 49 135 121 176 209 28 59 28
64 31 278 l3 217 -78 -1 c-43 -1 -118 -5 -166 -10z m181 -261 l-3 -183 -34
-63 c-119 -219 -395 -315 -568 -199 -113 76 -152 230 -93 364 69 155 311 254
643 262 l59 1 -4 -182z"/>
<path d="M6147 2415 c-434 -73 -731 -365 -830 -815 -31 -139 -31 -455 0 -585
50 -213 130 -369 257 -503 203 -214 466 -313 795 -299 294 12 529 112 716 302
159 163 251 367 286 640 14 111 6 363 -15 460 -99 448 -386 731 -811 800 -109
18 -291 18 -398 0z m478 -44 c186 -51 372 -172 482 -316 72 -93 146 -247 179
-370 35 -133 45 -399 20 -542 -72 -418 -322 -702 -712 -810 -92 -26 -112 -28
-279 -27 -154 0 -192 3 -260 22 -369 102 -621 391 -691 792 -24 142 -15 401
19 531 103 393 360 647 737 730 121 27 390 21 505 -10z"/>
<path d="M6196 2104 c-259 -63 -429 -302 -465 -654 -37 -358 109 -685 362
-810 98 -48 175 -64 277 -57 227 16 419 176 510 427 96 262 73 585 -57 820
-47 84 -161 199 -233 233 -117 56 -266 72 -394 41z m286 -95 c174 -58 305
-215 368 -439 27 -95 38 -297 21 -396 -57 -334 -277 -564 -541 -564 -394 0
-654 512 -504 993 66 210 209 364 383 413 74 20 202 17 273 -7z"/>
<path d="M10323 2416 c-486 -93 -786 -488 -810 -1067 -29 -710 371 -1139 1061
-1139 207 0 424 33 593 90 94 32 123 55 123 100 0 54 -60 285 -77 298 -26 19
-72 14 -165 -17 -125 -42 -251 -61 -408 -61 -158 0 -253 19 -353 72 -79 41
-183 145 -224 223 -35 67 -73 192 -73 242 l0 33 674 0 c388 0 685 4 699 9 13
5 28 18 32 28 16 40 17 287 1 388 -65 425 -280 697 -621 786 -103 27 -346 35
-452 15z m452 -46 c280 -89 456 -290 541 -617 20 -76 27 -132 31 -249 3 -84 3
-168 -1 -188 l-7 -36 -710 0 -710 0 5 -32 c3 -18 8 -60 12 -93 15 -147 77
-278 179 -381 124 -124 253 -173 480 -181 174 -7 327 14 474 63 57 19 105 33
106 32 1 -2 14 -57 30 -123 15 -66 30 -125 32 -131 5 -13 -103 -55 -219 -85
-190 -48 -499 -64 -669 -34 -414 72 -691 353 -764 773 -19 110 -19 341 0 462
55 337 239 617 494 749 160 82 249 101 461 97 138 -3 177 -7 235 -26z"/>
<path d="M10357 2119 c-134 -31 -275 -154 -345 -300 -37 -74 -82 -217 -82
-256 0 -11 94 -13 531 -13 l532 0 -7 80 c-21 250 -153 433 -351 484 -64 17
-215 20 -278 5z m318 -114 c70 -34 148 -110 188 -182 28 -52 67 -186 67 -230
l0 -23 -459 0 c-280 0 -462 4 -466 9 -8 14 31 124 67 193 36 67 124 167 175
199 92 57 141 70 258 66 97 -3 117 -6 170 -32z"/>
<path d="M12610 2411 c-141 -30 -266 -93 -363 -181 -30 -28 -57 -50 -59 -50
-3 0 -8 39 -11 87 -7 125 -4 123 -227 123 -155 0 -180 -2 -197 -17 -19 -18
-19 -40 -14 -1055 5 -831 9 -1040 19 -1050 10 -10 67 -14 222 -16 200 -3 210
-2 229 17 21 21 21 29 21 649 0 408 4 649 11 688 26 144 133 285 266 351 63
31 87 37 157 41 195 10 327 -84 393 -282 l28 -81 5 -677 c4 -536 8 -680 18
-690 10 -10 67 -14 222 -16 200 -3 210 -2 229 17 21 21 21 28 21 694 0 747 -3
792 -64 968 -39 116 -81 189 -156 272 -100 110 -246 187 -414 216 -88 16 -239
12 -336 -8z m370 -27 c36 -8 103 -33 149 -56 68 -32 101 -57 166 -122 86 -87
130 -158 171 -279 52 -152 54 -187 54 -913 l0 -674 -184 0 -185 0 -4 663 c-4
727 -3 718 -67 852 -74 155 -206 235 -391 235 -220 0 -417 -147 -491 -369 -22
-65 -22 -77 -26 -723 l-3 -658 -184 0 -183 0 -5 978 c-3 537 -8 992 -12 1010
l-7 32 170 0 170 0 7 -160 c4 -88 10 -160 14 -160 3 0 19 20 34 44 37 60 161
175 228 213 71 41 150 72 224 88 84 19 275 18 355 -1z"/>
<path d="M16717 2415 c-434 -73 -731 -365 -830 -815 -31 -139 -31 -455 0 -585
50 -213 130 -369 257 -503 203 -214 466 -313 795 -299 294 12 529 112 716 302
159 163 251 367 286 640 14 111 6 363 -15 460 -99 448 -386 731 -811 800 -109
18 -291 18 -398 0z m478 -44 c186 -51 372 -172 482 -316 72 -93 146 -247 179
-370 35 -133 45 -399 20 -542 -72 -418 -322 -702 -712 -810 -92 -26 -112 -28
-279 -27 -154 0 -192 3 -260 22 -369 102 -621 391 -691 792 -24 142 -15 401
19 531 103 393 360 647 737 730 121 27 390 21 505 -10z"/>
<path d="M16766 2104 c-259 -63 -429 -302 -465 -654 -37 -358 109 -685 362
-810 98 -48 175 -64 277 -57 227 16 419 176 510 427 96 262 73 585 -57 820
-47 84 -161 199 -233 233 -117 56 -266 72 -394 41z m286 -95 c174 -58 305
-215 368 -439 27 -95 38 -297 21 -396 -57 -334 -277 -564 -541 -564 -394 0
-654 512 -504 993 66 210 209 364 383 413 74 20 202 17 273 -7z"/>
<path d="M233 2375 c-17 -12 -23 -26 -23 -53 0 -55 745 -2019 777 -2049 23
-22 31 -23 217 -23 170 0 196 2 215 17 31 26 801 1997 801 2051 0 73 -3 73
-251 70 -136 -2 -222 -7 -229 -14 -8 -8 -309 -865 -474 -1353 -23 -69 -45
-121 -48 -115 -3 5 -18 47 -33 94 -83 251 -475 1364 -485 1374 -7 7 -85 12
-228 14 -186 2 -220 0 -239 -13z m437 -47 c242 -679 517 -1492 542 -1603 6
-24 -2 -44 81 210 52 162 280 826 457 1333 l33 92 194 0 c181 0 195 -1 190
-17 -3 -10 -180 -465 -394 -1010 l-388 -992 -180 -1 -180 0 -379 998 c-208
548 -381 1003 -383 1010 -4 9 39 12 195 12 l200 0 12 -32z"/>
<path d="M7473 2375 c-17 -12 -23 -26 -23 -53 0 -55 745 -2019 777 -2049 23
-22 31 -23 217 -23 170 0 196 2 215 17 31 26 801 1997 801 2051 0 73 -3 73
-251 70 -136 -2 -222 -7 -229 -14 -8 -8 -309 -865 -474 -1353 -23 -69 -45
-121 -48 -115 -3 5 -18 47 -33 94 -83 251 -475 1364 -485 1374 -7 7 -85 12
-228 14 -186 2 -220 0 -239 -13z m437 -47 c242 -679 517 -1492 542 -1603 6
-24 -2 -44 81 210 52 162 280 826 457 1333 l33 92 194 0 c181 0 195 -1 190
-17 -3 -10 -180 -465 -394 -1010 l-388 -992 -180 -1 -180 0 -379 998 c-208
548 -381 1003 -383 1010 -4 9 39 12 195 12 l200 0 12 -32z"/>
</g>
</svg>
